<svg width="42" height="20" viewBox="0 0 42 20" fill="none" xmlns="http://www.w3.org/2000/svg">
<rect x="0.750488" y="0.6875" width="41.0312" height="19" rx="4" fill="#36963B"/>
<path d="M5.74049 13.6875L8.51049 6.6875H9.95049L12.7005 13.6875H10.9805L9.66049 10.1375C9.60716 9.9975 9.55382 9.8475 9.50049 9.6875C9.44716 9.5275 9.39382 9.36417 9.34049 9.1975C9.28716 9.02417 9.23382 8.8575 9.18049 8.6975C9.13382 8.53083 9.09382 8.3775 9.06049 8.2375L9.36049 8.2275C9.32049 8.39417 9.27382 8.5575 9.22049 8.7175C9.17382 8.8775 9.12382 9.0375 9.07049 9.1975C9.02382 9.35083 8.97049 9.5075 8.91049 9.6675C8.85049 9.82083 8.79382 9.98083 8.74049 10.1475L7.42049 13.6875H5.74049ZM7.06049 12.3475L7.59049 11.0675H10.8105L11.3305 12.3475H7.06049ZM15.5385 13.7875C15.0252 13.7875 14.5652 13.6675 14.1585 13.4275C13.7519 13.1875 13.4285 12.8608 13.1885 12.4475C12.9552 12.0275 12.8385 11.5542 12.8385 11.0275C12.8385 10.5008 12.9552 10.0308 13.1885 9.6175C13.4285 9.1975 13.7519 8.8675 14.1585 8.6275C14.5652 8.3875 15.0252 8.2675 15.5385 8.2675C16.0119 8.2675 16.4452 8.35083 16.8385 8.5175C17.2385 8.68417 17.5552 8.9175 17.7885 9.2175L16.9185 10.2575C16.8252 10.1508 16.7152 10.0508 16.5885 9.9575C16.4619 9.86417 16.3219 9.79083 16.1685 9.7375C16.0152 9.68417 15.8552 9.6575 15.6885 9.6575C15.4352 9.6575 15.2119 9.7175 15.0185 9.8375C14.8252 9.95083 14.6752 10.1108 14.5685 10.3175C14.4619 10.5242 14.4085 10.7608 14.4085 11.0275C14.4085 11.2808 14.4619 11.5108 14.5685 11.7175C14.6819 11.9242 14.8352 12.0875 15.0285 12.2075C15.2219 12.3275 15.4419 12.3875 15.6885 12.3875C15.8619 12.3875 16.0219 12.3675 16.1685 12.3275C16.3152 12.2808 16.4485 12.2142 16.5685 12.1275C16.6952 12.0408 16.8119 11.9342 16.9185 11.8075L17.7785 12.8575C17.5519 13.1442 17.2352 13.3708 16.8285 13.5375C16.4285 13.7042 15.9985 13.7875 15.5385 13.7875ZM19.0978 13.6875V7.0375H20.6978V13.6875H19.0978ZM18.1578 9.7775V8.3775H21.7278V9.7775H18.1578ZM22.7321 13.6875V8.3775H24.3321V13.6875H22.7321ZM23.5321 7.3275C23.2321 7.3275 22.9955 7.2575 22.8221 7.1175C22.6555 6.97083 22.5721 6.76417 22.5721 6.4975C22.5721 6.2575 22.6588 6.06083 22.8321 5.9075C23.0055 5.75417 23.2388 5.6775 23.5321 5.6775C23.8321 5.6775 24.0655 5.75083 24.2321 5.8975C24.3988 6.0375 24.4821 6.2375 24.4821 6.4975C24.4821 6.74417 24.3955 6.94417 24.2221 7.0975C24.0555 7.25083 23.8255 7.3275 23.5321 7.3275ZM27.4655 13.6875L25.2455 8.3775H27.0155L28.3355 12.3475L27.9455 12.3875L29.3055 8.3775H31.0555L28.7255 13.6875H27.4655ZM34.2737 13.7875C33.687 13.7875 33.177 13.6708 32.7437 13.4375C32.3104 13.1975 31.9737 12.8742 31.7337 12.4675C31.4937 12.0542 31.3737 11.5842 31.3737 11.0575C31.3737 10.6508 31.4404 10.2775 31.5737 9.9375C31.707 9.5975 31.8937 9.30417 32.1337 9.0575C32.3737 8.80417 32.657 8.61083 32.9837 8.4775C33.317 8.3375 33.6804 8.2675 34.0737 8.2675C34.447 8.2675 34.787 8.33417 35.0937 8.4675C35.407 8.60083 35.677 8.7875 35.9037 9.0275C36.1304 9.2675 36.3037 9.55083 36.4237 9.8775C36.5437 10.2042 36.597 10.5608 36.5837 10.9475L36.5737 11.3775H32.3437L32.1137 10.4775H35.2737L35.1037 10.6675V10.4675C35.0904 10.3008 35.037 10.1542 34.9437 10.0275C34.857 9.89417 34.7404 9.79083 34.5937 9.7175C34.447 9.64417 34.2804 9.6075 34.0937 9.6075C33.8337 9.6075 33.6104 9.66083 33.4237 9.7675C33.2437 9.8675 33.107 10.0175 33.0137 10.2175C32.9204 10.4108 32.8737 10.6508 32.8737 10.9375C32.8737 11.2308 32.9337 11.4875 33.0537 11.7075C33.1804 11.9208 33.3604 12.0875 33.5937 12.2075C33.8337 12.3275 34.117 12.3875 34.4437 12.3875C34.6704 12.3875 34.8704 12.3542 35.0437 12.2875C35.2237 12.2208 35.417 12.1075 35.6237 11.9475L36.3737 13.0075C36.167 13.1875 35.947 13.3342 35.7137 13.4475C35.4804 13.5608 35.2404 13.6442 34.9937 13.6975C34.7537 13.7575 34.5137 13.7875 34.2737 13.7875Z" fill="#F2F2F2"/>
</svg>
