<svg width="20" height="20" viewBox="0 0 20 20" fill="none" xmlns="http://www.w3.org/2000/svg">
<path fill-rule="evenodd" clip-rule="evenodd" d="M17.217 5.83333C19.5181 9.81911 18.1525 14.9157 14.1667 17.2169C10.181 19.5181 5.08439 18.1524 2.7832 14.1667C0.482016 10.1809 1.84764 5.08431 5.83341 2.78312C9.81919 0.481935 14.9158 1.84756 17.217 5.83333ZM7.53748 14.068L13.311 10.7346L12.6197 12.7551C12.508 13.0817 12.6821 13.437 13.0087 13.5487C13.3353 13.6605 13.6907 13.4863 13.8024 13.1597L15.0332 9.56237C15.1175 9.31587 15.0401 9.04291 14.8389 8.87739C14.6377 8.71187 14.355 8.68851 14.1294 8.81878L6.91248 12.9854C6.61354 13.158 6.51112 13.5403 6.68371 13.8392C6.8563 14.1381 7.23854 14.2406 7.53748 14.068ZM6.99143 6.45126C7.31803 6.563 7.4922 6.91833 7.38046 7.24493L6.68918 9.26536L12.4627 5.93203C12.7616 5.75944 13.1439 5.86186 13.3165 6.16079C13.489 6.45972 13.3866 6.84197 13.0877 7.01456L5.87081 11.1812C5.64518 11.3115 5.36242 11.2881 5.16123 11.1226C4.96004 10.9571 4.88262 10.6841 4.96696 10.4376L6.19776 6.84028C6.3095 6.51369 6.66484 6.33952 6.99143 6.45126Z" fill="#15803D"/>
</svg>
