<svg width="186" height="266" viewBox="0 0 186 266" fill="none" xmlns="http://www.w3.org/2000/svg">
<path d="M128.328 169.531L146.473 175.861L146.509 175.788L148.488 176.47C149.276 176.742 150.106 176.871 150.939 176.851L154.068 176.777C154.068 176.777 154.115 176.565 154.204 176.246L155.841 176.777C155.242 178.411 154.913 180.169 154.915 181.999C154.918 185.19 155.871 188.156 157.501 190.627C160.272 194.826 165.003 197.593 170.374 197.593C170.944 197.593 172.066 197.593 173.442 197.593C173.447 198.021 173.536 204.53 173.489 208.072C173.45 211.055 172.544 218.284 172.21 220.863C172.139 221.405 171.693 221.813 171.152 221.834L170.124 221.875C169.803 221.888 169.503 222.04 169.303 222.292L167.969 223.967C167.758 224.232 167.44 224.386 167.104 224.386L159.946 224.386C159.635 224.386 159.34 224.255 159.13 224.025L156.435 221.074L153.994 221.244L153.068 214.593C152.976 213.926 152.41 213.43 151.743 213.43L147.188 213.43L147.188 221.718L144.252 221.922C144.252 221.922 141.192 221.922 141.072 218.59C140.952 215.257 141.269 208.053 141.269 208.053C141.269 208.053 141.269 191.326 141.27 190.007C141.239 190.024 141.203 190.035 141.172 190.052C141.966 189.638 142.569 188.838 142.594 187.738L142.849 176.77L128.341 171.668L128.328 169.531Z" fill="#B2D182"/>
<path d="M143.378 129.21L143.854 101.037C143.377 101.874 142.487 102.399 141.514 102.399L140.509 102.399C139.02 102.399 137.813 101.198 137.813 99.7165L137.813 98.7714C134.541 104.494 130.987 111.532 129.582 115.917C127.193 123.374 126.874 130.867 126.836 133.21L125.64 133.499C126.29 117.914 127.561 114.859 134.919 100.623C142.696 85.5794 146.039 86.1771 149.611 86.1771L169.075 86.1771C171.223 86.1771 172.965 87.91 172.965 90.0485L172.965 132.906L171.426 132.623C169.86 132.335 168.271 132.191 166.679 132.191L152.172 132.191C151.464 132.191 150.758 132.244 150.059 132.349L143.272 133.371L143.378 129.21Z" fill="#B2D182"/>
<path d="M127.799 138.804C127.8 138.783 127.8 138.765 127.8 138.745C127.759 140.455 127.683 143.701 127.639 145.971C127.482 154.026 128.192 164.005 128.346 166.047C128.363 166.275 128.515 166.469 128.733 166.541L143.087 171.297L143.908 135.951L143.982 133.062L150.729 132.043C151.424 131.938 152.126 131.885 152.83 131.885L167.253 131.885C168.836 131.885 170.416 132.029 171.973 132.316L173.503 132.598L173.503 159.976C173.503 162.108 171.771 163.836 169.635 163.836C169.635 163.836 169.627 163.842 169.625 163.843C163.004 164.246 157.391 168.36 154.843 174.129C154.469 175.027 154.275 175.908 154.275 175.908L151.125 175.982C150.286 176.001 149.451 175.873 148.657 175.602L127.025 168.236C127.025 168.236 125.867 155.413 126.258 138.965L127.799 138.804Z" fill="#B2D182"/>
<path d="M124.607 139.505C124.625 138.324 124.648 137.251 124.681 136.332C124.681 136.332 124.68 136.254 124.679 136.118C124.661 134.432 124.644 122.703 127.409 114.459C130.395 105.557 141.168 86.1738 141.168 86.1738L144.527 86.1757L144.527 86.1738L149.302 86.1764C147.976 86.1941 146.612 86.3693 144.984 87.4862L144.983 92.0384C145.028 91.0344 143.721 90.5896 143.134 91.4095C141.909 93.116 140.249 95.7694 138.509 98.787C135.208 104.517 131.622 111.563 130.204 115.954C127.794 123.42 127.472 130.923 127.433 133.269C127.433 133.285 127.433 133.306 127.432 133.322C127.427 133.679 127.765 133.94 128.115 133.855L141.934 130.657C141.934 130.657 144.081 130.207 144.124 129.264L143.943 136.332L128.13 137.924C127.841 137.953 127.619 138.19 127.612 138.477C127.607 138.669 127.602 138.915 127.595 139.196C127.595 139.175 127.595 139.157 127.596 139.137C127.554 140.854 127.477 144.113 127.432 146.393C127.273 154.483 127.993 164.503 128.149 166.554C128.186 166.944 128.542 167.05 128.542 167.05L143.109 171.826L143 176.45L128.178 171.35L137.68 188.726C138.532 190.137 140.199 190.343 141.388 189.678C141.387 190.997 141.387 207.715 141.387 207.715L126.962 178.341C126.962 178.341 124.876 173.982 124.754 166.473C124.648 159.952 124.486 147.294 124.607 139.505Z" fill="#B2D182"/>
<path d="M124.068 138.71L127.014 138.399C127.015 138.378 127.015 138.36 127.016 138.34C126.974 140.064 126.898 143.335 126.854 145.624C126.697 153.744 127.407 163.802 127.561 165.861C127.598 166.252 127.949 166.359 127.949 166.359L142.311 171.153L142.204 175.794L127.59 170.675L136.958 188.117C137.798 189.533 139.442 189.74 140.614 189.073C140.613 190.396 140.613 207.177 140.613 207.177L126.39 177.692C126.39 177.692 124.334 173.316 124.213 165.779C124.109 159.234 123.95 146.528 124.068 138.71Z" fill="#B2D182"/>
<path d="M125.143 138.71L128.008 138.399C128.009 138.378 128.009 138.36 128.009 138.34C127.969 140.064 127.895 143.335 127.852 145.624C127.699 153.744 128.39 163.802 128.54 165.861L128.568 170.675L137.68 188.117C138.497 189.533 140.096 189.74 141.235 189.073C141.235 190.396 141.235 207.177 141.235 207.177L127.401 177.692C127.401 177.692 125.401 173.316 125.284 165.779C125.182 159.234 125.027 146.528 125.143 138.71Z" fill="#B2D182"/>
<path d="M124.639 136.62C124.639 136.62 124.621 135.664 124.649 134.095L127.369 133.403C127.369 133.42 127.368 133.443 127.367 133.459C127.362 133.834 127.697 134.109 128.045 134.019L141.753 130.66C141.753 130.66 143.882 130.188 143.924 129.197L143.745 136.62L128.059 138.292C127.773 138.323 127.553 138.571 127.546 138.873C127.541 139.075 127.536 139.333 127.529 139.628L124.564 139.953C124.582 138.712 124.606 137.585 124.639 136.62Z" fill="#B2D182"/>
<path d="M124.026 134.037L126.782 133.384C126.821 131.059 127.144 123.624 129.567 116.225C130.992 111.873 134.597 104.89 137.916 99.2112C139.664 96.2206 141.333 93.591 142.564 91.8997C143.155 91.0871 144.468 91.528 144.423 92.523L144.423 88.0116C146.061 86.9047 147.431 86.7311 148.765 86.7135L143.965 86.7109L143.964 86.7128L140.588 86.7109C140.588 86.7109 129.759 105.921 126.758 114.742C124.551 121.229 124.107 129.892 124.026 134.024L124.026 134.037Z" fill="#B2D182"/>
<path d="M168.972 86.177C171.128 86.177 172.876 87.9114 172.876 90.0518L172.876 160.428C172.876 162.568 171.128 164.302 168.972 164.302C168.972 164.302 168.964 164.308 168.961 164.31C162.278 164.714 156.611 168.844 154.039 174.634C153.846 175.098 153.701 175.553 153.605 175.89L155.268 176.42C155.256 176.453 155.247 176.488 155.235 176.523C157.46 170.43 163.515 166.029 170.363 166.029L175.116 166.029L175.116 86.1738L168.972 86.177Z" fill="#B2D182"/>
<path d="M170.963 78.5778L175.654 78.5778L175.654 85.6355L141.235 85.6355L143.332 73.2028C143.332 73.2028 143.931 67.8582 145.639 57.1606C149.917 33.803 151.089 32.5838 152.884 31.3646C152.884 31.3646 152.081 40.0386 152.066 41.4447C152.547 40.1144 153.038 39.2039 153.531 38.8933C156.781 36.845 158.124 37.2043 158.124 37.2043L159.318 35.9188L159.318 27.7259L160.099 26.9998C160.49 26.6368 161.013 26.4499 161.545 26.4821L166.889 26.8091L166.889 27.9084L171.279 28.6414L172.007 28.1098C172.423 27.8061 173.011 27.928 173.272 28.3731C173.272 28.3731 175.654 29.6813 175.654 37.2043L175.654 47.5376C173.403 47.5376 171.397 47.5376 170.643 47.5376C165.78 47.5376 161.442 49.7796 158.599 53.2851L158.597 53.2857C156.34 56.0689 155.026 59.6489 155.144 63.5395C155.399 71.9748 162.532 78.5778 170.963 78.5778Z" fill="#B2D182"/>
<path d="M143.387 176.67L128.328 171.682L137.981 188.68C139.402 190.946 143.058 190.032 143.122 187.393L143.387 176.67Z" fill="#90A3BF"/>
<path d="M128.494 138.319L143.924 136.727L143.111 172.221L128.897 167.445C128.681 167.372 128.53 167.177 128.513 166.948C128.36 164.897 127.657 154.877 127.813 146.788C127.864 144.168 127.956 140.25 127.989 138.872C127.995 138.585 128.212 138.348 128.494 138.319Z" fill="#90A3BF"/>
<path d="M130.031 115.911C131.452 111.469 135.046 104.34 138.355 98.543L138.355 99.5002C138.355 101.001 139.575 102.217 141.081 102.217L142.096 102.217C143.08 102.217 143.98 101.686 144.462 100.838L143.981 129.376C143.939 130.33 141.787 130.785 141.787 130.785L127.938 134.021C127.587 134.107 127.248 133.842 127.253 133.481C127.29 131.164 127.599 123.516 130.031 115.911Z" fill="#90A3BF"/>
<path fill-rule="evenodd" clip-rule="evenodd" d="M170.814 191.106C175.898 191.106 180.02 186.985 180.02 181.901C180.02 176.817 175.898 172.695 170.814 172.695C165.729 172.695 161.608 176.817 161.608 181.901C161.608 186.985 165.729 191.106 170.814 191.106ZM170.814 167.918C178.536 167.918 184.797 174.178 184.797 181.901C184.797 189.623 178.536 195.883 170.814 195.883C163.092 195.883 156.831 189.623 156.831 181.901C156.831 174.178 163.092 167.918 170.814 167.918Z" stroke="#1B1C21" stroke-width="1.07558"/>
<path fill-rule="evenodd" clip-rule="evenodd" d="M170.814 72.7913C175.898 72.7913 180.02 68.6703 180.02 63.5861C180.02 58.5019 175.898 54.3802 170.814 54.3802C165.729 54.3802 161.608 58.5019 161.608 63.5861C161.608 68.6703 165.729 72.7913 170.814 72.7913ZM170.814 49.6035C178.536 49.6035 184.797 55.8637 184.797 63.5861C184.797 71.3085 178.536 77.5686 170.814 77.5686C163.092 77.5686 156.831 71.3085 156.831 63.5861C156.831 55.8637 163.092 49.6035 170.814 49.6035Z" stroke="#1B1C21" stroke-width="1.07558"/>
<path d="M55.4027 250.8L56.2506 250.8L57.4296 248.172L57.4296 245.433L64.7781 245.433C65.1846 245.433 65.4681 245.031 65.3324 244.649L64.1382 241.276C63.5636 239.656 62.0314 238.574 60.3114 238.574L57.4296 238.574L57.4296 233.527L63.3613 233.527L68.251 247.331C68.3601 247.637 68.5142 247.918 68.6994 248.172C69.312 249.011 70.295 249.534 71.3713 249.534L113.222 249.534C114.298 249.534 115.281 249.011 115.893 248.172C116.078 247.918 116.233 247.637 116.341 247.331L121.232 233.527L127.163 233.527L127.163 238.574L124.281 238.574C122.562 238.574 121.029 239.656 120.455 241.276L119.26 244.649C119.125 245.031 119.408 245.433 119.814 245.433L127.163 245.433L127.163 248.172L128.342 250.8L129.19 250.8C129.605 250.8 129.942 251.136 129.942 251.551L129.942 265.044C129.942 265.458 129.605 265.795 129.19 265.795L123.921 265.795C123.251 265.795 122.598 265.579 122.061 265.181C121.522 264.782 120.87 264.567 120.2 264.567L107.81 264.567L107.81 263.788C107.81 263.347 107.453 262.991 107.013 262.991L77.5801 262.991C77.14 262.991 76.7823 263.347 76.7823 263.788L76.7823 264.567L64.3931 264.567C63.7228 264.567 63.0708 264.782 62.5317 265.181C61.9939 265.579 61.3413 265.795 60.6716 265.795L55.4027 265.795C54.9879 265.795 54.6511 265.458 54.6511 265.044L54.6511 251.551C54.6511 251.136 54.9879 250.8 55.4027 250.8Z" fill="#B2D182"/>
<path d="M115.967 247.454C115.497 248.778 114.243 249.662 112.835 249.662L70.817 249.662C69.4092 249.662 68.1541 248.778 67.6842 247.454L62.775 233.618L120.877 233.618L115.967 247.454ZM62.6756 229.691L62.1802 214.27C62.3382 214.93 62.8157 215.49 63.4887 215.728C67.5301 217.159 78.894 220.724 91.8179 220.724C104.741 220.724 116.01 217.159 120.014 215.728C120.718 215.477 121.207 214.872 121.337 214.168L121.03 229.653C120.998 230.604 120.31 231.403 119.372 231.576C115.85 232.223 106.558 233.618 91.8179 233.618C77.0475 233.618 67.8071 232.218 64.3292 231.571C63.4079 231.4 62.7266 230.625 62.6756 229.691Z" fill="#B2D182"/>
<path d="M62.1988 207.05L66.0531 178.676C66.3245 178.73 77.9578 181.012 91.8281 181.012C105.864 181.012 117.617 178.674 117.617 178.674L121.32 207.063C121.443 208.008 120.888 208.912 119.978 209.233C115.981 210.647 104.73 214.168 91.8281 214.168C78.9253 214.168 67.58 210.646 63.5452 209.233C62.6292 208.912 62.0691 208.001 62.1988 207.05Z" fill="#90A3BF"/>
<path d="M66.251 176.318C66.8829 172.387 67.3418 149.068 67.3418 149.068C67.3418 149.068 67.7861 120.297 64.3568 108.949L64.3314 107.882C64.3314 107.882 74.2685 105.533 91.7584 105.533C109.249 105.533 119.186 107.882 119.186 107.882C115.567 118.818 116.027 148.55 116.027 148.55C116.027 148.55 116.486 171.87 117.118 175.8C117.183 176.206 117.332 176.751 117.545 177.398L117.545 177.399C117.545 177.399 105.793 179.748 91.7584 179.748C77.8891 179.748 66.2568 177.456 65.9853 177.402C66.1118 176.979 66.204 176.61 66.251 176.318Z" fill="#B2D182"/>
<path d="M90.6348 70.0391C119.119 70.0391 126.715 79.362 126.715 79.362L119.056 107.684C119.056 107.684 109.118 105.353 91.6271 105.353C74.1365 105.353 64.199 107.684 64.199 107.684L56.8023 79.362C56.8023 79.362 62.1496 70.0391 90.6348 70.0391Z" fill="#90A3BF"/>
<path d="M58.3694 41.0811C59.3331 33.6951 63.6486 31.7892 75.6069 31.0157C86.3774 30.3193 92.2536 30.2441 92.2959 30.2441C92.3388 30.2441 98.2151 30.3193 108.986 31.0157C120.944 31.7892 125.259 33.6951 126.224 41.0811L127.791 61.8178L127.067 79.7209C127.067 79.7209 119.526 70.3039 91.2457 70.3039C62.9651 70.3039 57.6562 79.7209 57.6562 79.7209L56.8023 61.8177L58.3694 41.0811Z" fill="#B2D182"/>
<path d="M64.5288 9.53751L120.064 9.53752C121.384 9.53752 122.454 8.4561 122.454 7.12374C122.454 5.79075 121.384 4.70997 120.064 4.70997L64.5288 4.70997C63.2088 4.70997 62.1392 5.79074 62.1392 7.12374C62.1392 8.4561 63.2088 9.53751 64.5288 9.53751ZM107.959 21.8772C107.959 18.201 105.008 15.2212 101.368 15.2212L83.2245 15.2212C79.5842 15.2212 76.6329 18.201 76.6329 21.8772L107.959 21.8772ZM54.2416 8.78533C54.6846 6.89013 54.9083 4.94936 54.9083 3.00152L54.9083 1.08193C54.9083 0.554378 55.3315 0.126947 55.8539 0.126947L128.739 0.126953C129.261 0.126953 129.684 0.554385 129.684 1.08194L129.684 3.00153C129.684 4.94936 129.908 6.89013 130.351 8.78534C130.794 10.6812 131.017 12.622 131.017 14.5691L131.017 15.5755C131.017 16.103 130.594 16.5305 130.071 16.5305L128.039 16.5305C128.039 15.8072 127.458 15.2212 126.742 15.2212L110.468 15.2212C109.636 15.2212 108.962 15.9021 108.962 16.7416C108.962 16.7416 108.962 17.8859 109.322 18.5489C109.975 19.7471 114.486 23.7897 117.03 23.7897L67.5621 23.7897C70.1061 23.7897 74.6176 19.7471 75.2703 18.5489C75.6307 17.8859 75.6307 16.7416 75.6307 16.7416C75.6307 15.9021 74.957 15.2212 74.1251 15.2212L57.8507 15.2212C57.1345 15.2212 56.5543 15.8072 56.5543 16.5305L54.5206 16.5305C53.9989 16.5305 53.5756 16.103 53.5756 15.5755L53.5756 14.5691C53.5756 12.622 53.7993 10.6812 54.2416 8.78533Z" fill="#B2D182"/>
<path d="M57.3401 169.531L39.1959 175.861L39.1601 175.788L37.1814 176.47C36.3928 176.742 35.5626 176.871 34.7299 176.851L31.6009 176.777C31.6009 176.777 31.5537 176.565 31.4651 176.246L29.8273 176.777C30.4273 178.411 30.7556 180.169 30.7543 181.999C30.7512 185.19 29.7977 188.156 28.1675 190.627C25.3958 194.826 20.6662 197.593 15.2945 197.593C14.7253 197.593 13.6027 197.593 12.2272 197.593C12.2215 198.021 12.1322 204.53 12.1794 208.072C12.2184 211.055 13.1247 218.284 13.4593 220.863C13.5297 221.405 13.9756 221.813 14.5159 221.834L15.5442 221.875C15.8656 221.888 16.1656 222.04 16.3662 222.292L17.7002 223.967C17.9109 224.232 18.2291 224.386 18.565 224.386L25.7229 224.386C26.0329 224.386 26.3292 224.255 26.5392 224.025L29.2342 221.074L31.6751 221.244L32.6003 214.593C32.6934 213.926 33.2588 213.43 33.9261 213.43L38.4808 213.43L38.4808 221.718L41.4161 221.922C41.4161 221.922 44.4765 221.922 44.5972 218.59C44.7167 215.257 44.3997 208.053 44.3997 208.053C44.3997 208.053 44.3997 191.326 44.3985 190.007C44.4306 190.024 44.4658 190.035 44.4972 190.051C43.7035 189.638 43.1004 188.838 43.0752 187.738L42.8199 176.77L57.3281 171.668L57.3401 169.531Z" fill="#B2D182"/>
<path d="M42.2908 129.21L41.815 101.037C42.2921 101.874 43.1818 102.399 44.1543 102.399L45.1586 102.399C46.6477 102.399 47.8552 101.198 47.8552 99.7165L47.8552 98.7714C51.1274 104.494 54.6812 111.532 56.0862 115.917C58.4751 123.374 58.7935 130.866 58.8324 133.21L60.029 133.499C59.3775 117.914 58.1076 114.858 50.7491 100.623C42.9729 85.5794 39.6299 86.1771 36.0577 86.1771L16.5935 86.1771C14.4453 86.1771 12.7035 87.91 12.7035 90.0485L12.7035 132.906L14.2415 132.623C15.8082 132.335 17.3972 132.191 18.9894 132.191L33.4968 132.191C34.2037 132.191 34.91 132.243 35.61 132.349L42.3959 133.371L42.2908 129.21Z" fill="#B2D182"/>
<path d="M57.8694 138.804C57.8687 138.783 57.8681 138.765 57.8675 138.745C57.9086 140.455 57.9853 143.701 58.0289 145.971C58.186 154.026 57.4768 164.005 57.3229 166.047C57.3052 166.275 57.1526 166.469 56.9354 166.541L42.581 171.297L41.7604 135.951L41.6863 133.062L34.9397 132.043C34.2438 131.937 33.5416 131.885 32.8387 131.885L18.4153 131.885C16.8323 131.885 15.2525 132.029 13.6948 132.316L12.1657 132.598L12.1657 159.976C12.1657 162.108 13.8975 163.836 16.0332 163.836C16.0332 163.836 16.0415 163.842 16.0434 163.843C22.6646 164.246 28.2779 168.36 30.8252 174.129C31.2 175.027 31.3931 175.908 31.3931 175.908L34.5433 175.982C35.3816 176.001 36.2174 175.873 37.0114 175.602L58.6431 168.236C58.6431 168.236 59.8019 155.413 59.4106 138.965L57.8694 138.804Z" fill="#B2D182"/>
<path d="M61.062 139.506C61.044 138.324 61.0196 137.251 60.9875 136.332C60.9875 136.332 60.9888 136.254 60.99 136.119C61.0074 134.432 61.0241 122.703 58.2591 114.459C55.2736 105.558 44.4994 86.1738 44.4994 86.1738L41.1413 86.1764L41.1406 86.1738L36.3662 86.177C37.6919 86.1948 39.0555 86.3699 40.6844 87.4869L40.6851 92.039C40.6401 91.035 41.9464 90.5902 42.535 91.4101C43.7592 93.1166 45.4196 95.77 47.1591 98.7876C50.4607 104.518 54.0463 111.564 55.4638 115.955C57.8742 123.421 58.1954 130.922 58.2346 133.269C58.2353 133.285 58.2359 133.307 58.2359 133.323C58.2417 133.679 57.9037 133.941 57.5529 133.856L43.7341 130.657C43.7341 130.657 41.5872 130.207 41.5448 129.264L41.726 136.332L57.5381 137.924C57.8272 137.953 58.0496 138.19 58.0566 138.477C58.0605 138.669 58.0669 138.916 58.074 139.196C58.0734 139.175 58.0727 139.157 58.0721 139.137C58.1138 140.854 58.1916 144.114 58.2359 146.393C58.3953 154.483 57.6756 164.503 57.5194 166.554C57.4822 166.944 57.1262 167.05 57.1262 167.05L42.5588 171.827L42.6674 176.45L57.4905 171.351L47.9886 188.727C47.1366 190.137 45.4691 190.343 44.2803 189.678C44.2816 190.997 44.2816 207.715 44.2816 207.715L58.7069 178.341C58.7069 178.341 60.7915 173.981 60.9142 166.473C61.0209 159.953 61.1822 147.294 61.062 139.506Z" fill="#B2D182"/>
<path d="M43.3575 171.153L57.7199 166.359C57.7199 166.359 58.0709 166.252 58.1077 165.861C58.2616 163.802 58.9712 153.744 58.8141 145.624C58.7704 143.335 58.6937 140.064 58.6525 138.34C58.6531 138.36 58.6538 138.378 58.6544 138.399L61.6004 138.71C61.7189 146.528 61.5598 159.234 61.4547 165.779C61.3337 173.316 59.2785 177.692 59.2785 177.692L45.056 207.177C45.056 207.177 45.056 190.396 45.0548 189.073C46.2268 189.74 47.8709 189.533 48.7109 188.117L58.0792 170.675L43.4646 175.794L43.3575 171.153Z" fill="#B2D182"/>
<path d="M60.526 138.71L57.6606 138.399C57.66 138.378 57.6594 138.36 57.6588 138.34C57.6988 140.064 57.7734 143.335 57.8159 145.624C57.9687 153.744 57.2786 163.802 57.1288 165.861L57.1011 170.675L47.9892 188.117C47.1721 189.533 45.5731 189.74 44.4331 189.073C44.4343 190.396 44.4343 207.177 44.4343 207.177L58.2676 177.692C58.2676 177.692 60.2666 173.316 60.3843 165.779C60.4865 159.234 60.6412 146.528 60.526 138.71Z" fill="#B2D182"/>
<path d="M61.0307 136.62C61.0307 136.62 61.0479 135.664 61.0198 134.095L58.2999 133.403C58.3006 133.42 58.3012 133.443 58.3012 133.459C58.307 133.834 57.9717 134.109 57.6236 134.019L43.9159 130.66C43.9159 130.66 41.7862 130.188 41.7441 129.197L41.9239 136.62L57.609 138.292C57.8958 138.323 58.1164 138.571 58.1234 138.873C58.1272 139.075 58.1336 139.333 58.1406 139.628L61.1046 139.953C61.0868 138.712 61.0625 137.585 61.0307 136.62Z" fill="#B2D182"/>
<path d="M61.6425 134.037L58.8863 133.384C58.8469 131.059 58.5239 123.624 56.101 116.225C54.6761 111.873 51.0718 104.89 47.7531 99.2117C46.0045 96.2211 44.3355 93.5915 43.105 91.9003C42.5133 91.0877 41.2001 91.5286 41.2454 92.5236L41.2447 88.0122C39.6073 86.9053 38.2366 86.7317 36.9041 86.7141L41.7033 86.7109L41.704 86.7135L45.0796 86.7109C45.0796 86.7109 55.9098 105.921 58.9108 114.743C61.1173 121.229 61.5617 129.892 61.6425 134.024L61.6425 134.037Z" fill="#B2D182"/>
<path d="M16.6973 86.177C14.5414 86.177 12.7932 87.9114 12.7932 90.0518L12.7932 160.428C12.7932 162.568 14.5414 164.302 16.6972 164.302C16.6972 164.302 16.7055 164.308 16.7075 164.31C23.3912 164.714 29.0574 168.844 31.6287 174.634C31.823 175.098 31.9674 175.553 32.064 175.89L30.3996 176.42C30.4124 176.453 30.4207 176.488 30.4335 176.523C28.2085 170.43 22.1538 166.029 15.3058 166.029L10.5523 166.029L10.5523 86.1738L16.6973 86.177Z" fill="#B2D182"/>
<path d="M14.7053 78.5778L10.0145 78.5778L10.0145 85.6355L44.4331 85.6349L42.3375 73.2029C42.3375 73.2029 41.7382 67.8582 40.0299 57.1606C35.7523 33.803 34.5802 32.5838 32.7849 31.3646C32.7849 31.3646 33.5879 40.0386 33.6031 41.4447C33.1224 40.1144 32.631 39.2039 32.1383 38.8933C28.8876 36.845 27.5452 37.2043 27.5452 37.2043L26.3511 35.9188L26.3511 27.7259L25.5701 26.9998C25.1796 26.6368 24.6567 26.4499 24.1242 26.4821L18.7799 26.8091L18.7799 27.909L14.3906 28.6414L13.6626 28.1098C13.2462 27.8061 12.6583 27.928 12.3971 28.3731C12.3971 28.3731 10.0145 29.6813 10.0145 37.2043L10.0145 47.5376C12.2659 47.5376 14.272 47.5376 15.0264 47.5376C19.8888 47.5376 24.2271 49.7796 27.0702 53.2851L27.0721 53.2857C29.3292 56.0689 30.6432 59.6489 30.5253 63.5395C30.2698 71.9748 23.137 78.5778 14.7053 78.5778Z" fill="#B2D182"/>
<path d="M43.3576 176.67L58.4157 171.682L48.7634 188.68C47.3416 190.946 43.6872 190.032 43.6226 187.393L43.3576 176.67Z" fill="#90A3BF"/>
<path d="M57.1745 138.319L41.7441 136.727L42.5568 172.221L56.7726 167.445C56.9877 167.372 57.1388 167.177 57.1563 166.948C57.3087 164.897 58.0111 154.877 57.8555 146.788C57.8054 144.168 57.7126 140.25 57.6806 138.872C57.6737 138.585 57.4567 138.348 57.1745 138.319Z" fill="#90A3BF"/>
<path d="M55.6373 115.911C54.2166 111.469 50.6231 104.34 47.3142 98.543L47.3142 99.5002C47.3142 101.001 46.0931 102.217 44.5874 102.217L43.5718 102.217C42.5884 102.217 41.6887 101.686 41.2064 100.838L41.6875 129.376C41.73 130.33 43.8816 130.785 43.8816 130.785L57.731 134.021C58.0826 134.107 58.4213 133.842 58.4158 133.481C58.3795 131.164 58.0697 123.516 55.6373 115.911Z" fill="#90A3BF"/>
<path fill-rule="evenodd" clip-rule="evenodd" d="M24.0605 181.901C24.0605 176.817 19.9395 172.695 14.8553 172.695C9.77044 172.695 5.64879 176.817 5.64879 181.901C5.64879 186.985 9.77044 191.106 14.8553 191.106C19.9395 191.106 24.0605 186.985 24.0605 181.901ZM28.8372 181.901C28.8372 189.623 22.577 195.883 14.8553 195.883C7.13227 195.883 0.872099 189.623 0.8721 181.901C0.8721 174.178 7.13227 167.918 14.8553 167.918C22.577 167.918 28.8372 174.178 28.8372 181.901Z" stroke="#1B1C21" stroke-width="1.07558"/>
<path fill-rule="evenodd" clip-rule="evenodd" d="M24.0605 63.5861C24.0605 58.5019 19.9395 54.3802 14.8553 54.3802C9.77044 54.3802 5.64879 58.5019 5.64879 63.5861C5.64879 68.6703 9.77044 72.7913 14.8553 72.7913C19.9395 72.7913 24.0605 68.6703 24.0605 63.5861ZM28.8372 63.5861C28.8372 71.3085 22.577 77.5686 14.8553 77.5686C7.13227 77.5686 0.872099 71.3085 0.8721 63.5861C0.8721 55.8637 7.13227 49.6035 14.8553 49.6035C22.577 49.6035 28.8372 55.8637 28.8372 63.5861Z" stroke="#1B1C21" stroke-width="1.07558"/>
<path d="M54.7551 264.409C54.7551 264.648 54.9505 264.843 55.191 264.843L60.4775 264.843C61.0769 264.843 61.6732 264.646 62.1549 264.292C62.7549 263.85 63.4657 263.617 64.2115 263.617L76.3237 263.617L76.3237 263.156C76.3237 262.543 76.8252 262.044 77.4424 262.044L106.973 262.044C107.59 262.044 108.091 262.543 108.091 263.156L108.091 263.617L120.204 263.617C120.938 263.617 121.669 263.856 122.26 264.292C122.742 264.646 123.338 264.843 123.938 264.843L129.224 264.843C129.465 264.843 129.66 264.648 129.66 264.409L129.66 250.942C129.66 250.703 129.465 250.509 129.224 250.509L55.191 250.509C54.9505 250.509 54.7551 250.703 54.7551 250.942L54.7551 264.409ZM126.985 247.886L116.04 247.886C115.954 247.994 115.861 248.096 115.763 248.192C115.711 248.244 115.653 248.29 115.598 248.339C115.53 248.398 115.461 248.456 115.389 248.51C115.329 248.555 115.269 248.598 115.207 248.639C115.124 248.692 115.039 248.742 114.953 248.79C114.899 248.82 114.845 248.852 114.788 248.88C114.652 248.947 114.509 249.004 114.364 249.052C114.312 249.07 114.258 249.083 114.205 249.099C114.092 249.131 113.979 249.159 113.863 249.179C113.81 249.19 113.758 249.199 113.705 249.207C113.539 249.23 113.372 249.246 113.203 249.246L71.2128 249.246C71.0436 249.246 70.8769 249.23 70.7108 249.207C70.6567 249.199 70.6039 249.19 70.5504 249.179C70.4365 249.158 70.3252 249.131 70.2151 249.1C70.1597 249.084 70.1031 249.07 70.0484 249.052C69.9059 249.003 69.7659 248.947 69.6303 248.881C69.5686 248.851 69.5107 248.816 69.4509 248.783C69.3701 248.739 69.2912 248.692 69.2142 248.642C69.1486 248.599 69.0844 248.554 69.022 248.506C68.9539 248.455 68.889 248.401 68.8247 248.345C68.7662 248.294 68.7058 248.245 68.651 248.191C68.5537 248.095 68.4614 247.993 68.3749 247.886L57.4315 247.886L56.5336 249.877L127.883 249.877L126.985 247.886ZM119.817 245.152C119.523 245.152 119.246 245.009 119.076 244.771C118.906 244.532 118.863 244.224 118.961 243.948L120.16 240.582C120.779 238.842 122.443 237.674 124.299 237.674L126.873 237.674L126.873 233.27L121.464 233.27L116.633 246.836C116.582 246.978 116.522 247.117 116.452 247.253L126.873 247.253L126.873 245.152L119.817 245.152ZM126.873 238.307L124.299 238.307C122.712 238.307 121.29 239.306 120.76 240.793L119.561 244.159C119.531 244.243 119.544 244.333 119.596 244.405C119.647 244.478 119.728 244.52 119.817 244.52L126.873 244.52L126.873 238.307ZM120.789 233.27L63.626 233.27L68.3825 246.625C68.4315 246.763 68.4926 246.893 68.5594 247.019C68.6243 247.14 68.6988 247.257 68.7815 247.371C68.7847 247.375 68.7872 247.38 68.7904 247.384C68.8394 247.452 68.8941 247.513 68.9488 247.575C68.9832 247.615 69.0176 247.656 69.0545 247.693C69.1085 247.749 69.1658 247.803 69.225 247.855C69.2676 247.893 69.3128 247.928 69.3573 247.964C69.4172 248.011 69.4751 248.058 69.5381 248.1C69.6017 248.142 69.6685 248.179 69.736 248.217C69.8219 248.267 69.9109 248.311 70.0019 248.351C70.0764 248.384 70.1515 248.417 70.2291 248.443C70.2832 248.462 70.3385 248.478 70.3933 248.494C70.4785 248.518 70.5644 248.538 70.6516 248.555C70.6993 248.564 70.7464 248.574 70.7954 248.581C70.9322 248.6 71.0716 248.613 71.2128 248.613L113.203 248.613C113.344 248.613 113.483 248.6 113.621 248.581C113.669 248.574 113.715 248.564 113.762 248.556C113.851 248.538 113.938 248.517 114.025 248.493C114.078 248.478 114.132 248.463 114.184 248.444C114.267 248.416 114.347 248.381 114.426 248.346C114.5 248.313 114.573 248.277 114.644 248.239C114.725 248.194 114.805 248.148 114.881 248.097C114.94 248.058 114.995 248.014 115.051 247.97C115.1 247.931 115.148 247.894 115.194 247.852C115.251 247.802 115.306 247.75 115.359 247.696C115.397 247.656 115.433 247.614 115.47 247.572C115.523 247.511 115.576 247.451 115.625 247.385C115.626 247.382 115.628 247.379 115.63 247.377C115.715 247.261 115.791 247.141 115.857 247.018C115.924 246.892 115.984 246.762 116.033 246.625L120.789 233.27ZM119.677 230.609C120.473 230.463 121.047 229.799 121.074 228.995L121.336 214.906C121.097 215.139 120.808 215.323 120.484 215.438C116.27 216.939 105.076 220.431 92.1999 220.431C79.3278 220.431 68.0395 216.939 63.7832 215.438C63.4765 215.33 63.201 215.163 62.97 214.95L63.3944 229.027C63.4371 229.812 64.011 230.461 64.7879 230.605C68.0879 231.216 77.3641 232.637 92.1999 232.637C107.018 232.637 116.352 231.218 119.677 230.609ZM62.9515 233.27L57.5428 233.27L57.5428 237.674L60.1167 237.674C61.9722 237.674 63.6356 238.842 64.2554 240.582L65.4542 243.948C65.5522 244.224 65.5095 244.531 65.3396 244.77C65.1704 245.009 64.8929 245.152 64.5983 245.152L57.5428 245.152L57.5428 247.253L67.9632 247.253C67.8932 247.117 67.8327 246.978 67.7818 246.836L62.9515 233.27ZM57.5428 244.52L64.5983 244.52C64.688 244.52 64.7689 244.478 64.8204 244.405C64.8719 244.333 64.8847 244.243 64.8541 244.159L63.6553 240.793C63.1252 239.306 61.7037 238.307 60.1167 238.307L57.5428 238.307L57.5428 244.52ZM55.191 249.877L55.8356 249.877L56.9065 247.502L56.9065 232.637L75.8923 232.637C70.3035 232.175 66.5372 231.572 64.6715 231.226C63.6044 231.029 62.8185 230.138 62.7594 229.061L62.2643 213.705L62.8917 213.613C63.0298 214.188 63.4428 214.646 63.9957 214.842C68.2209 216.332 79.4264 219.798 92.1999 219.798C104.976 219.798 116.086 216.332 120.27 214.842C120.846 214.638 121.274 214.134 121.386 213.529L122.017 213.597L121.71 229.016C121.673 230.12 120.884 231.031 119.793 231.231C117.915 231.576 114.129 232.176 108.534 232.637L127.509 232.637L127.509 247.503L128.579 249.877L129.224 249.877C129.816 249.877 130.297 250.355 130.297 250.942L130.297 264.409C130.297 264.997 129.816 265.475 129.224 265.475L123.938 265.475C123.203 265.475 122.473 265.235 121.882 264.8C121.399 264.445 120.804 264.249 120.204 264.249L107.455 264.249L107.455 263.156C107.455 262.892 107.239 262.677 106.973 262.677L77.4424 262.677C77.1764 262.677 76.9601 262.892 76.9601 263.156L76.9601 264.249L64.2115 264.249C63.6031 264.249 63.0234 264.44 62.5335 264.8C61.943 265.235 61.2125 265.475 60.4775 265.475L55.191 265.475C54.5999 265.475 54.1188 264.997 54.1188 264.409L54.1188 250.942C54.1188 250.355 54.5999 249.877 55.191 249.877Z" fill="#B2D182"/>
<path d="M68.0758 149.584C68.0574 150.54 67.6088 173.049 66.9807 176.97C66.9445 177.191 66.8853 177.452 66.8007 177.763C67.0775 177.815 67.5172 177.894 68.1032 177.994C68.1115 177.996 68.1204 177.997 68.128 177.998C68.2591 178.021 68.3997 178.044 68.5461 178.068C68.5728 178.073 68.5995 178.077 68.6262 178.082C68.7605 178.104 68.9011 178.127 69.0469 178.151C69.0857 178.157 69.1251 178.163 69.1652 178.169C69.2988 178.19 69.4401 178.213 69.5826 178.236C69.638 178.244 69.6921 178.253 69.7493 178.262C69.8944 178.284 70.0452 178.307 70.1986 178.331C70.2533 178.339 70.3061 178.347 70.3628 178.356C70.5384 178.382 70.721 178.409 70.9074 178.437C70.9456 178.443 70.9825 178.449 71.0207 178.454C71.4738 178.52 71.9567 178.588 72.4658 178.657C72.5485 178.669 72.6351 178.68 72.719 178.691C72.894 178.714 73.0684 178.738 73.2491 178.762C73.3465 178.774 73.4476 178.788 73.5469 178.8C73.7161 178.822 73.8873 178.844 74.0617 178.866C74.1756 178.88 74.292 178.894 74.4072 178.908C74.5752 178.929 74.7438 178.95 74.915 178.97C75.0403 178.985 75.1663 179 75.2929 179.015C75.4616 179.034 75.6321 179.055 75.8052 179.074C75.9363 179.089 76.0686 179.104 76.2022 179.119C76.3766 179.138 76.5541 179.158 76.7329 179.177C76.8697 179.192 77.0059 179.207 77.1446 179.221C77.3253 179.24 77.5099 179.259 77.6938 179.278C77.8357 179.292 77.9769 179.307 78.1201 179.321C78.3186 179.341 78.5197 179.36 78.7221 179.379C78.8519 179.392 78.9804 179.404 79.1115 179.416C79.3628 179.44 79.6186 179.462 79.8744 179.485C79.9642 179.492 80.052 179.501 80.1417 179.508C80.4853 179.538 80.834 179.567 81.1859 179.595C81.2991 179.604 81.4137 179.612 81.5276 179.621C81.7726 179.639 82.0175 179.659 82.2663 179.676C82.4076 179.686 82.5508 179.696 82.6927 179.706C82.9192 179.721 83.1451 179.737 83.3742 179.752C83.5282 179.762 83.6847 179.771 83.8406 179.781C84.0582 179.795 84.2771 179.807 84.4979 179.821C84.6634 179.829 84.8294 179.838 84.9961 179.848C85.2138 179.859 85.4327 179.87 85.6522 179.881C85.8195 179.889 85.9875 179.898 86.1562 179.905C86.3782 179.915 86.6022 179.925 86.8268 179.934C86.9967 179.941 87.1666 179.948 87.3378 179.953C87.5681 179.962 87.7991 179.97 88.0314 179.977C88.1975 179.982 88.3629 179.988 88.5303 179.993C88.7721 180 89.0151 180.006 89.2588 180.011C89.4205 180.015 89.5814 180.019 89.7443 180.022C90.0129 180.027 90.2839 180.031 90.555 180.034C90.6918 180.036 90.8274 180.038 90.9642 180.04C91.374 180.044 91.7863 180.046 92.1999 180.046C92.623 180.046 93.0443 180.044 93.4636 180.039C93.526 180.039 93.5877 180.037 93.6501 180.037C94.0198 180.032 94.3876 180.028 94.7534 180.02C94.7763 180.02 94.7986 180.019 94.8215 180.019C106.21 179.786 115.7 178.117 117.602 177.763C117.436 177.223 117.327 176.791 117.272 176.45C116.643 172.53 116.195 150.019 116.176 149.062C116.171 148.766 115.765 119.641 119.247 108.485C118.899 108.411 118.279 108.285 117.405 108.131C117.394 108.129 117.383 108.127 117.372 108.125C117.24 108.101 117.1 108.077 116.956 108.053C116.934 108.049 116.911 108.045 116.888 108.041C116.746 108.017 116.597 107.992 116.442 107.967C116.418 107.962 116.393 107.958 116.368 107.955C116.213 107.929 116.054 107.903 115.887 107.877C115.859 107.872 115.831 107.868 115.803 107.864C115.63 107.836 115.453 107.809 115.268 107.781C115.264 107.78 115.26 107.779 115.256 107.779C114.439 107.655 113.512 107.525 112.477 107.394L112.476 107.394C112.259 107.367 112.035 107.34 111.809 107.312C111.749 107.305 111.693 107.298 111.633 107.29C111.428 107.266 111.216 107.242 111.002 107.218C110.915 107.208 110.829 107.197 110.742 107.187C110.539 107.165 110.332 107.142 110.123 107.12C110.019 107.108 109.914 107.098 109.807 107.086C109.6 107.065 109.389 107.043 109.176 107.021C109.064 107.01 108.951 106.999 108.837 106.987C108.624 106.967 108.409 106.946 108.19 106.926C108.065 106.913 107.937 106.902 107.81 106.891C107.592 106.87 107.375 106.851 107.152 106.831C107.021 106.82 106.887 106.809 106.754 106.798C106.528 106.779 106.303 106.76 106.071 106.741C105.942 106.731 105.809 106.722 105.678 106.712C105.234 106.678 104.779 106.644 104.315 106.612C104.154 106.602 103.998 106.59 103.835 106.579C103.631 106.566 103.421 106.554 103.212 106.541C103.013 106.529 102.816 106.516 102.615 106.505C102.412 106.493 102.204 106.482 101.997 106.471C101.78 106.459 101.564 106.447 101.343 106.436C101.138 106.426 100.93 106.416 100.722 106.407C100.494 106.396 100.264 106.385 100.032 106.375C99.8262 106.367 99.6181 106.358 99.4094 106.351C99.1657 106.341 98.92 106.332 98.6725 106.323C98.4651 106.316 98.2557 106.309 98.0451 106.302C97.7868 106.294 97.5246 106.287 97.2618 106.279C97.0588 106.274 96.8552 106.268 96.6497 106.263C96.3665 106.257 96.0795 106.251 95.7913 106.246C95.5953 106.242 95.4018 106.238 95.204 106.235C94.8813 106.23 94.5543 106.226 94.2266 106.222C94.058 106.221 93.8919 106.218 93.722 106.217C93.2206 106.213 92.714 106.21 92.1999 106.21C91.6819 106.21 91.171 106.213 90.6657 106.217C90.499 106.218 90.3361 106.221 90.1707 106.222C89.8379 106.226 89.5051 106.23 89.178 106.235C88.9782 106.238 88.7816 106.242 88.5837 106.246C88.2948 106.252 88.0059 106.258 87.7215 106.264C87.5179 106.269 87.3168 106.275 87.1151 106.28C86.8447 106.288 86.5755 106.295 86.3101 106.303C86.1053 106.31 85.9023 106.317 85.6999 106.324C85.4416 106.333 85.1839 106.342 84.93 106.352C84.7334 106.361 84.5386 106.368 84.3446 106.376C84.0919 106.388 83.8412 106.399 83.5931 106.411C83.4009 106.419 83.21 106.429 83.021 106.438C82.778 106.45 82.5387 106.463 82.3007 106.476C82.1149 106.487 81.9285 106.497 81.7458 106.507C81.5079 106.521 81.2731 106.536 81.0402 106.55C80.8652 106.561 80.6889 106.572 80.5165 106.583C80.2772 106.599 80.0437 106.616 79.8095 106.632C79.6498 106.643 79.4869 106.654 79.3291 106.666C79.0644 106.684 78.8061 106.705 78.5477 106.725C78.4294 106.734 78.3066 106.743 78.1901 106.753C77.821 106.783 77.459 106.813 77.1052 106.844C76.9856 106.855 76.871 106.865 76.7533 106.876C76.5179 106.897 76.2818 106.919 76.0527 106.94C75.9045 106.954 75.7606 106.969 75.6156 106.983C75.4234 107.001 75.2312 107.02 75.0442 107.039C74.8914 107.055 74.7438 107.071 74.5943 107.087C74.4212 107.105 74.2481 107.123 74.0801 107.141C73.9306 107.158 73.7855 107.174 73.6398 107.191C73.4782 107.209 73.3178 107.227 73.16 107.245C73.0168 107.262 72.8743 107.278 72.7343 107.296C72.5835 107.313 72.4346 107.332 72.2876 107.349C72.1489 107.367 72.0108 107.383 71.8753 107.401C71.7353 107.419 71.5979 107.436 71.4623 107.454C71.33 107.471 71.197 107.488 71.0672 107.506C70.938 107.523 70.8133 107.54 70.6879 107.557C70.5594 107.575 70.4289 107.593 70.3042 107.61C70.1846 107.627 70.0688 107.644 69.9523 107.661C69.8327 107.678 69.7118 107.695 69.5966 107.712C69.4859 107.728 69.3809 107.744 69.2734 107.76C69.1576 107.778 69.0399 107.795 68.9285 107.812C68.8248 107.828 68.7287 107.843 68.6288 107.859C68.4252 107.891 68.2292 107.922 68.0421 107.953C67.9537 107.968 67.8614 107.982 67.7768 107.996C67.6756 108.013 67.5821 108.029 67.486 108.046C67.4083 108.059 67.3275 108.073 67.2531 108.086C67.1665 108.101 67.0857 108.115 67.003 108.13C66.9279 108.143 66.8503 108.156 66.779 108.17C66.7033 108.183 66.6314 108.196 66.5589 108.21C66.4908 108.222 66.4227 108.235 66.3578 108.247C66.2891 108.26 66.2235 108.272 66.1599 108.284C66.0994 108.295 66.0396 108.306 65.9836 108.318C65.927 108.328 65.8723 108.339 65.8201 108.349C65.7628 108.36 65.7081 108.371 65.6559 108.382C65.6095 108.391 65.5643 108.4 65.5229 108.408C65.4759 108.418 65.4332 108.427 65.3912 108.435C65.3518 108.443 65.311 108.451 65.2754 108.459C65.2328 108.468 65.1952 108.476 65.159 108.483C65.1361 108.489 65.1106 108.494 65.0902 108.498C65.082 108.5 65.0762 108.501 65.0686 108.502L65.0864 109.272C68.4812 120.603 68.0803 149.293 68.0758 149.584ZM63.9958 208.515C68.2209 210.006 79.4265 213.472 92.1999 213.472C104.977 213.472 116.086 210.006 120.27 208.516C121.044 208.24 121.511 207.479 121.405 206.665L117.741 178.38C117.394 178.445 116.781 178.556 115.948 178.694C115.943 178.695 115.938 178.695 115.934 178.697C115.776 178.722 115.611 178.75 115.438 178.777C115.422 178.78 115.408 178.783 115.392 178.785C115.224 178.812 115.05 178.839 114.869 178.868C114.848 178.871 114.829 178.874 114.808 178.877C114.61 178.908 114.406 178.939 114.194 178.972L114.19 178.972C113.534 179.072 112.805 179.177 112.01 179.285C111.987 179.289 111.964 179.292 111.941 179.294C111.709 179.326 111.471 179.358 111.228 179.39C111.165 179.398 111.1 179.406 111.037 179.414C110.831 179.441 110.622 179.468 110.408 179.494C110.321 179.505 110.232 179.516 110.144 179.527C109.948 179.551 109.751 179.575 109.549 179.599C109.448 179.611 109.346 179.624 109.244 179.636C109.047 179.659 108.849 179.682 108.647 179.705C108.539 179.717 108.429 179.729 108.318 179.742C108.117 179.764 107.913 179.786 107.706 179.809C107.594 179.821 107.481 179.833 107.367 179.846C107.152 179.868 106.934 179.89 106.715 179.912C106.605 179.924 106.498 179.934 106.388 179.946C106.15 179.969 105.908 179.993 105.664 180.015C105.568 180.025 105.473 180.034 105.375 180.043C105.075 180.071 104.77 180.098 104.462 180.125C104.42 180.129 104.378 180.133 104.336 180.137C103.983 180.167 103.625 180.196 103.264 180.225C103.183 180.232 103.101 180.237 103.02 180.243C102.742 180.265 102.462 180.287 102.179 180.307C102.049 180.316 101.917 180.325 101.786 180.334C101.549 180.351 101.312 180.367 101.072 180.382C100.923 180.392 100.772 180.401 100.622 180.411C100.393 180.425 100.163 180.439 99.9318 180.452C99.7765 180.461 99.62 180.469 99.4635 180.478C99.235 180.49 99.0053 180.502 98.7743 180.513C98.6121 180.521 98.4498 180.529 98.2863 180.536C98.0566 180.547 97.8262 180.557 97.594 180.566C97.4272 180.573 97.2605 180.58 97.0932 180.586C96.8622 180.594 96.6299 180.602 96.3977 180.609C96.2271 180.614 96.0579 180.62 95.8867 180.625C95.643 180.632 95.3974 180.638 95.1518 180.643C94.9927 180.647 94.8343 180.651 94.6745 180.654C94.399 180.66 94.1222 180.664 93.8448 180.667C93.7105 180.668 93.5775 180.671 93.4426 180.673C93.0309 180.676 92.6167 180.679 92.1999 180.679C91.7837 180.679 91.3701 180.676 90.9572 180.673C90.8223 180.671 90.688 180.668 90.5537 180.667C90.2782 180.664 90.0027 180.66 89.7297 180.654C89.5694 180.651 89.4103 180.647 89.2506 180.643C89.003 180.638 88.7561 180.632 88.5105 180.625C88.3432 180.62 88.1771 180.614 88.0104 180.61C87.7769 180.602 87.544 180.594 87.313 180.586C87.1418 180.58 86.9719 180.573 86.8014 180.566C86.5742 180.557 86.3477 180.547 86.1231 180.536C85.9564 180.529 85.7909 180.521 85.6255 180.513C85.3989 180.502 85.1743 180.49 84.9497 180.478C84.7868 180.47 84.6245 180.461 84.4623 180.452C84.2421 180.439 84.0245 180.426 83.8062 180.412C83.6446 180.402 83.483 180.392 83.3226 180.382C83.098 180.368 82.8766 180.352 82.6545 180.337C82.5088 180.327 82.3624 180.317 82.218 180.306C81.959 180.288 81.7026 180.268 81.448 180.249C81.3443 180.241 81.2387 180.233 81.1356 180.225C80.7799 180.196 80.428 180.167 80.0812 180.137C79.989 180.13 79.8986 180.121 79.8063 180.113C79.5525 180.091 79.2992 180.068 79.0504 180.046C78.9168 180.033 78.787 180.02 78.6552 180.008C78.4491 179.988 78.2429 179.969 78.0393 179.948C77.9012 179.934 77.7657 179.92 77.6282 179.907C77.4418 179.888 77.2547 179.869 77.0715 179.849C76.9283 179.834 76.7883 179.819 76.6477 179.803C76.4727 179.785 76.2977 179.766 76.1259 179.747C75.9865 179.731 75.8484 179.716 75.711 179.7C75.5449 179.681 75.3801 179.662 75.2166 179.642C75.0823 179.627 74.9487 179.611 74.817 179.595C74.6547 179.576 74.4956 179.557 74.3378 179.537C74.2093 179.521 74.0808 179.505 73.9548 179.49C73.7976 179.47 73.6449 179.45 73.4915 179.43C73.3732 179.415 73.2542 179.4 73.1384 179.385C72.9844 179.365 72.8361 179.345 72.686 179.325C72.574 179.31 72.4601 179.294 72.35 179.28C72.1947 179.259 72.0458 179.238 71.8957 179.216C71.8021 179.204 71.7048 179.191 71.6138 179.178C71.379 179.144 71.1518 179.111 70.9316 179.08C70.8406 179.066 70.7566 179.054 70.6682 179.041C70.5365 179.021 70.4041 179.002 70.2775 178.982C70.177 178.967 70.0821 178.952 69.9848 178.937C69.8772 178.922 69.7691 178.905 69.666 178.889C69.5756 178.874 69.4891 178.861 69.4013 178.847C69.2969 178.831 69.1932 178.814 69.0939 178.798C69.0119 178.785 68.9336 178.772 68.8547 178.76C68.7586 178.744 68.6657 178.729 68.5747 178.714C68.5009 178.702 68.4303 178.69 68.3603 178.679C68.2712 178.664 68.1866 178.65 68.1032 178.635C68.0389 178.624 67.9759 178.614 67.9142 178.604C67.8315 178.589 67.7539 178.576 67.6775 178.562C67.6272 178.554 67.5757 178.545 67.528 178.536C67.4402 178.521 67.3593 178.507 67.2804 178.493C67.2518 178.488 67.2206 178.482 67.1933 178.477C66.982 178.44 66.8051 178.407 66.6702 178.382L62.8568 206.654C62.748 207.461 63.2271 208.243 63.9958 208.515ZM64.9757 107.876C65.1443 107.84 65.3849 107.79 65.6903 107.73L65.6922 107.729C65.7762 107.713 65.8672 107.696 65.9607 107.678C65.99 107.672 66.0167 107.667 66.0466 107.661C66.1306 107.645 66.2197 107.629 66.3113 107.612C66.3578 107.604 66.4036 107.595 66.452 107.586C66.5404 107.57 66.632 107.553 66.7262 107.537C66.7841 107.526 66.8427 107.516 66.9025 107.505C66.9986 107.488 67.0959 107.471 67.1977 107.454C67.2658 107.442 67.3358 107.43 67.4064 107.418C67.5082 107.401 67.6107 107.383 67.7176 107.366C67.7959 107.352 67.8779 107.339 67.9588 107.326C68.0682 107.308 68.1757 107.29 68.2896 107.273C68.3756 107.259 68.4665 107.245 68.555 107.231C68.6727 107.212 68.7885 107.194 68.912 107.175C69.015 107.16 69.1245 107.143 69.2308 107.127C69.3765 107.105 69.5222 107.084 69.6743 107.061C69.8684 107.034 70.065 107.005 70.2692 106.976C70.371 106.962 70.4786 106.948 70.5829 106.934C70.7312 106.913 70.8795 106.893 71.0334 106.872C71.1524 106.857 71.2772 106.841 71.3987 106.825C71.545 106.806 71.692 106.787 71.8428 106.767C71.972 106.752 72.1056 106.735 72.238 106.719C72.3913 106.7 72.5466 106.681 72.7051 106.662C72.8419 106.646 72.9818 106.629 73.1225 106.613C73.2822 106.595 73.4438 106.576 73.608 106.558C73.7531 106.542 73.9001 106.525 74.0483 106.509C74.2201 106.49 74.3957 106.472 74.5726 106.453C74.7171 106.438 74.8609 106.423 75.0085 106.407C75.1981 106.388 75.3909 106.369 75.5857 106.351C75.732 106.336 75.8784 106.322 76.0279 106.308C76.229 106.289 76.4345 106.27 76.64 106.251C76.7902 106.238 76.9378 106.224 77.0899 106.211C77.3273 106.19 77.571 106.17 77.8147 106.15C77.94 106.139 78.0622 106.129 78.1888 106.118C78.5598 106.089 78.9378 106.06 79.3228 106.032C79.4201 106.025 79.5213 106.018 79.6193 106.011C79.9145 105.99 80.2111 105.97 80.5133 105.949C80.6628 105.94 80.8175 105.931 80.9689 105.921C81.2241 105.905 81.4805 105.889 81.7414 105.874C81.9145 105.864 82.0907 105.855 82.2657 105.845C82.5152 105.831 82.7652 105.818 83.0198 105.805C83.2017 105.796 83.3856 105.788 83.5702 105.779C83.826 105.767 84.083 105.755 84.3427 105.744C84.5323 105.736 84.7232 105.728 84.9153 105.721C85.1756 105.71 85.4378 105.7 85.7025 105.691C85.9004 105.684 86.0983 105.677 86.2981 105.671C86.571 105.662 86.8466 105.655 87.1234 105.647C87.3194 105.642 87.5147 105.636 87.7132 105.631C88.0053 105.625 88.3012 105.619 88.5983 105.613C88.7892 105.61 88.9782 105.605 89.171 105.603C89.5032 105.597 89.8404 105.593 90.179 105.59C90.3412 105.588 90.5009 105.586 90.6651 105.584C91.1703 105.58 91.6813 105.578 92.1999 105.578C92.7191 105.578 93.2301 105.58 93.736 105.585C93.9014 105.586 94.0624 105.588 94.2259 105.59C94.5619 105.593 94.8972 105.597 95.2275 105.603C95.4222 105.605 95.6137 105.61 95.8065 105.614C96.1024 105.619 96.3977 105.625 96.6885 105.631C96.887 105.636 97.0824 105.642 97.279 105.647C97.5552 105.655 97.83 105.662 98.1011 105.671C98.3028 105.677 98.502 105.684 98.7012 105.691C98.964 105.7 99.2255 105.71 99.4845 105.721C99.6773 105.728 99.8694 105.736 100.06 105.744C100.319 105.755 100.576 105.767 100.83 105.779C101.015 105.788 101.2 105.796 101.383 105.805C101.638 105.818 101.889 105.832 102.14 105.845C102.313 105.855 102.487 105.864 102.658 105.874C102.921 105.889 103.178 105.905 103.436 105.922C103.587 105.931 103.74 105.94 103.889 105.949C104.18 105.969 104.463 105.989 104.746 106.009C104.858 106.017 104.973 106.024 105.083 106.032C105.467 106.06 105.844 106.089 106.214 106.119C106.341 106.129 106.462 106.14 106.587 106.15C106.83 106.17 107.073 106.19 107.311 106.211C107.468 106.225 107.62 106.239 107.774 106.252C107.974 106.271 108.174 106.289 108.369 106.308C108.527 106.322 108.679 106.337 108.833 106.352C109.019 106.37 109.204 106.389 109.386 106.407C109.54 106.423 109.69 106.438 109.841 106.454C110.012 106.473 110.183 106.49 110.35 106.509C110.502 106.525 110.651 106.542 110.798 106.559C110.96 106.577 111.12 106.595 111.277 106.613C111.421 106.63 111.564 106.647 111.704 106.663C111.86 106.682 112.012 106.7 112.163 106.719C112.295 106.735 112.427 106.751 112.556 106.767C112.715 106.788 112.868 106.807 113.022 106.827C113.137 106.842 113.252 106.857 113.364 106.872C113.532 106.895 113.693 106.917 113.855 106.939C113.945 106.951 114.04 106.963 114.128 106.976C114.369 107.01 114.601 107.043 114.827 107.076C114.894 107.086 114.956 107.095 115.021 107.105C115.187 107.13 115.352 107.154 115.509 107.179C115.599 107.192 115.684 107.206 115.771 107.219C115.892 107.238 116.013 107.257 116.129 107.275C116.218 107.29 116.302 107.303 116.387 107.317C116.498 107.335 116.608 107.353 116.714 107.371C116.793 107.384 116.868 107.397 116.944 107.409C117.046 107.426 117.145 107.444 117.241 107.461C117.313 107.473 117.383 107.485 117.453 107.497C117.548 107.514 117.64 107.53 117.728 107.546C117.789 107.557 117.848 107.568 117.905 107.578C117.997 107.595 118.083 107.611 118.167 107.626C118.216 107.635 118.264 107.645 118.31 107.653C118.4 107.67 118.484 107.686 118.566 107.702C118.598 107.709 118.633 107.715 118.664 107.721C118.993 107.785 119.25 107.838 119.427 107.876L126.971 79.6976L126.969 79.6945C126.963 79.6888 126.954 79.6799 126.948 79.673C126.919 79.6426 126.887 79.6091 126.847 79.5692C126.831 79.5521 126.809 79.5313 126.79 79.5129C126.754 79.4781 126.719 79.4427 126.677 79.4022C126.651 79.3776 126.619 79.3491 126.59 79.3225C126.547 79.282 126.504 79.2422 126.455 79.1979C126.419 79.1663 126.378 79.1309 126.34 79.0967C126.289 79.0518 126.237 79.0069 126.18 78.9582C126.135 78.9202 126.085 78.8791 126.036 78.8386C125.976 78.7893 125.915 78.7393 125.849 78.6868C125.795 78.6432 125.736 78.5983 125.679 78.5527C125.608 78.4983 125.536 78.4427 125.46 78.3851C125.396 78.3377 125.329 78.2883 125.262 78.239C125.182 78.1795 125.098 78.1201 125.012 78.0587C124.938 78.0068 124.863 77.9543 124.786 77.9012C124.694 77.8379 124.598 77.7734 124.5 77.7083C124.417 77.6532 124.333 77.5982 124.247 77.5419C124.144 77.4755 124.035 77.4072 123.925 77.3389C123.833 77.2813 123.74 77.2231 123.642 77.1643C123.526 77.0941 123.404 77.0226 123.281 76.9511C123.179 76.8917 123.079 76.8328 122.973 76.7727C122.842 76.6994 122.705 76.6241 122.568 76.5488C122.457 76.4887 122.348 76.4286 122.233 76.3679C122.087 76.2914 121.932 76.2136 121.78 76.1358C121.661 76.0757 121.546 76.0156 121.423 75.9549C121.255 75.8726 121.077 75.7891 120.9 75.7063C120.78 75.6493 120.665 75.5937 120.541 75.5368C120.328 75.4387 120.102 75.3413 119.877 75.2439C119.779 75.2009 119.686 75.1585 119.584 75.1155C119.254 74.9757 118.909 74.8346 118.552 74.6955C118.477 74.6657 118.395 74.6366 118.318 74.6075C118.032 74.4975 117.742 74.3874 117.439 74.2786C117.3 74.2286 117.152 74.1793 117.009 74.13C116.758 74.0421 116.508 73.9548 116.245 73.8687C116.076 73.8131 115.898 73.7587 115.725 73.7036C115.475 73.6246 115.227 73.5455 114.969 73.4677C114.778 73.4108 114.58 73.3551 114.384 73.2994C114.127 73.2248 113.87 73.1514 113.604 73.0793C113.396 73.023 113.181 72.968 112.968 72.913C112.7 72.8434 112.43 72.7738 112.152 72.7061C111.928 72.6517 111.698 72.5986 111.469 72.5455C111.186 72.4797 110.901 72.4151 110.609 72.3519C110.37 72.3 110.126 72.2494 109.881 72.1988C109.582 72.1381 109.28 72.078 108.973 72.0192C108.719 71.9705 108.461 71.923 108.201 71.8762C107.886 71.8199 107.566 71.7649 107.242 71.7111C106.974 71.6668 106.703 71.6226 106.428 71.5802C106.095 71.529 105.755 71.4796 105.412 71.4309C105.13 71.3911 104.847 71.3512 104.558 71.3139C104.206 71.2677 103.845 71.2247 103.482 71.1817C103.187 71.1469 102.892 71.1121 102.59 71.0798C102.214 71.0394 101.829 71.0027 101.442 70.9666C101.138 70.9375 100.835 70.9078 100.523 70.8812C100.118 70.8471 99.7008 70.8173 99.2847 70.7876C98.9748 70.7655 98.6693 70.7414 98.3531 70.7218C97.9083 70.694 97.4483 70.6719 96.9907 70.6491C96.6866 70.6339 96.3888 70.6162 96.0789 70.6035C95.5597 70.5827 95.0239 70.5681 94.4881 70.5536C94.2234 70.5466 93.967 70.5359 93.6978 70.5302C92.8852 70.5137 92.0561 70.5049 91.2066 70.5049C90.3571 70.5049 89.5306 70.5137 88.7218 70.5302C88.4501 70.5359 88.1924 70.5466 87.9258 70.5542C87.3983 70.5681 86.8695 70.5827 86.3598 70.6035C86.0486 70.6162 85.7515 70.6345 85.4473 70.6497C84.9987 70.6725 84.5482 70.694 84.1136 70.7212C83.7986 70.7414 83.4964 70.7655 83.1884 70.7882C82.7837 70.818 82.3764 70.8471 81.9832 70.8806C81.6739 70.9072 81.3768 70.9375 81.0752 70.9666C80.7017 71.0027 80.3269 71.0387 79.9648 71.0786C79.667 71.1115 79.3787 71.1469 79.0886 71.1823C78.7399 71.2247 78.3918 71.2671 78.0539 71.3126C77.7714 71.3506 77.4952 71.3911 77.2191 71.4315C76.8927 71.479 76.5669 71.5277 76.25 71.5783C75.9821 71.6213 75.7193 71.6662 75.4584 71.7111C75.1511 71.7643 74.8482 71.818 74.5504 71.8737C74.2971 71.9211 74.047 71.9698 73.8002 72.0192C73.5125 72.0767 73.2306 72.1356 72.9519 72.1956C72.714 72.2469 72.4773 72.2988 72.2463 72.3519C71.9752 72.4132 71.7105 72.4765 71.4496 72.5404C71.2269 72.5948 71.0061 72.6498 70.7904 72.7055C70.5358 72.7713 70.289 72.8383 70.0433 72.906C69.8365 72.9629 69.6285 73.0199 69.4274 73.0787C69.1894 73.1476 68.9597 73.2178 68.7306 73.2887C68.5378 73.3475 68.3431 73.407 68.1573 73.4664C67.9333 73.5392 67.7176 73.6132 67.5019 73.6866C67.3263 73.7466 67.1475 73.8061 66.9782 73.8668C66.7644 73.9434 66.5608 74.0205 66.3565 74.0977C66.1981 74.1578 66.0358 74.2166 65.8831 74.2767C65.6763 74.3577 65.4809 74.4399 65.2843 74.5221C65.1475 74.5791 65.0043 74.6354 64.8714 74.6929C64.6588 74.7846 64.4584 74.877 64.2567 74.9694C64.1523 75.0168 64.0416 75.0642 63.9398 75.1123C63.6464 75.2508 63.3652 75.3887 63.0967 75.5273C62.9955 75.5785 62.9039 75.6297 62.8071 75.6816C62.6411 75.7689 62.4737 75.8568 62.3165 75.9441C62.2058 76.0061 62.1034 76.0674 61.9971 76.1288C61.866 76.2041 61.7324 76.2806 61.609 76.3553C61.5014 76.4198 61.4028 76.483 61.301 76.5476C61.1896 76.6171 61.0757 76.688 60.9701 76.7563C60.8708 76.8221 60.7779 76.8853 60.6837 76.9498C60.587 77.0156 60.4878 77.0821 60.3968 77.1466C60.307 77.2098 60.2231 77.2718 60.1391 77.3338C60.0525 77.3971 59.966 77.4603 59.8852 77.5217C59.805 77.583 59.7299 77.6425 59.6542 77.7019C59.5804 77.7614 59.5053 77.8202 59.4359 77.8772C59.3647 77.936 59.2966 77.9936 59.2298 78.0505C59.1655 78.1049 59.1025 78.1593 59.0427 78.2124C58.9803 78.2674 58.9218 78.3212 58.8639 78.3743C58.8085 78.4249 58.7551 78.4749 58.7042 78.523C58.6513 78.5742 58.5998 78.6236 58.5508 78.6723C58.5044 78.7178 58.4598 78.7627 58.4178 78.8064C58.3726 78.8519 58.3287 78.8981 58.2874 78.9417C58.2498 78.9816 58.2148 79.0202 58.1805 79.0575C58.1429 79.0992 58.1054 79.141 58.0723 79.1789C58.0437 79.2118 58.0176 79.2428 57.9921 79.2732C57.9603 79.3111 57.9285 79.3485 57.9011 79.382C57.8808 79.4073 57.863 79.4301 57.8451 79.4528C57.8203 79.4845 57.7942 79.518 57.7739 79.5452C57.7611 79.5623 57.751 79.5762 57.7401 79.5907C57.7204 79.6186 57.6994 79.647 57.6842 79.6685L57.6829 79.6698L64.9757 107.876ZM126.158 40.9777C125.251 34.0874 121.579 31.9804 109.072 31.1777C98.285 30.4857 92.3176 30.4066 92.2667 30.406C92.2133 30.4066 86.244 30.4857 75.459 31.1777C62.958 31.9804 59.2832 34.0855 58.3758 40.9695L56.7965 61.6796L57.6154 78.7096L57.6167 78.7083C57.6358 78.6862 57.6587 78.6609 57.6791 78.6375C57.7293 78.5799 57.7809 78.5217 57.8381 78.4591C57.8693 78.4249 57.9043 78.3889 57.938 78.3535C57.9915 78.2972 58.0456 78.2402 58.1041 78.1808C58.1442 78.1403 58.1856 78.0998 58.2282 78.0581C58.2887 77.9986 58.3523 77.9379 58.4185 77.8753C58.4662 77.831 58.5126 77.7873 58.5623 77.7424C58.6361 77.6747 58.7143 77.6058 58.7945 77.5362C58.8435 77.4938 58.8912 77.4521 58.9428 77.4078C59.0522 77.3155 59.168 77.2206 59.2896 77.1251C59.3188 77.101 59.3449 77.0789 59.3748 77.0549C59.5263 76.9366 59.6879 76.8145 59.8572 76.6911C59.9113 76.6513 59.9711 76.6108 60.0271 76.571C60.1486 76.4843 60.272 76.3976 60.4025 76.3091C60.4763 76.2597 60.5533 76.2098 60.6297 76.1592C60.7537 76.0782 60.881 75.996 61.0134 75.9137C61.0974 75.8606 61.1826 75.8081 61.2704 75.755C61.4098 75.6708 61.5536 75.5861 61.7012 75.5013C61.7897 75.4507 61.8762 75.3995 61.9685 75.3482C62.1396 75.2527 62.3197 75.156 62.5023 75.0592C62.5793 75.0193 62.6512 74.9788 62.7295 74.9384C62.9923 74.803 63.2666 74.667 63.5523 74.5316C63.6153 74.5019 63.684 74.4715 63.7483 74.4418C63.9767 74.3355 64.2096 74.2293 64.4533 74.1236C64.564 74.0756 64.6798 74.0275 64.7944 73.9794C65.0031 73.8915 65.215 73.8036 65.4345 73.7163C65.5643 73.6644 65.6973 73.6132 65.8316 73.5619C66.0505 73.4778 66.2738 73.3949 66.5035 73.3121C66.6429 73.2609 66.7828 73.2102 66.9273 73.1603C67.1748 73.0736 67.4319 72.9882 67.6915 72.9035C67.8258 72.8598 67.9569 72.8155 68.0949 72.7719C68.4608 72.6561 68.8375 72.5423 69.2269 72.431C69.2645 72.4202 69.2995 72.4088 69.3377 72.3981C69.7653 72.2766 70.2088 72.1577 70.665 72.0419C70.8088 72.0059 70.9596 71.9711 71.1066 71.9344C71.4273 71.856 71.7525 71.7782 72.0872 71.7029C72.2711 71.6611 72.4607 71.6207 72.6491 71.5802C72.9647 71.5125 73.2854 71.4461 73.6124 71.3809C73.8148 71.3411 74.0178 71.3019 74.2239 71.2626C74.565 71.1994 74.9144 71.1374 75.2681 71.0767C75.4692 71.0425 75.669 71.0077 75.8746 70.9742C76.2913 70.9072 76.7215 70.8433 77.1574 70.7806C77.3107 70.7591 77.4577 70.7351 77.6136 70.7136C78.2079 70.6326 78.8182 70.5561 79.4456 70.4853C79.5926 70.4688 79.7478 70.4543 79.8967 70.4384C80.3848 70.3859 80.8792 70.3353 81.3876 70.2892C81.6224 70.2683 81.8655 70.2493 82.1047 70.2297C82.5451 70.1937 82.9911 70.1589 83.4467 70.1279C83.714 70.1095 83.985 70.0924 84.258 70.076C84.7111 70.0488 85.1718 70.0248 85.6395 70.0026C85.9175 69.9893 86.1943 69.9761 86.4769 69.9653C86.9878 69.9451 87.5109 69.9299 88.039 69.9166C88.2897 69.9103 88.5354 69.9014 88.7892 69.897C89.5776 69.8818 90.38 69.8723 91.2066 69.8723C92.0402 69.8723 92.8528 69.8812 93.6513 69.897C93.911 69.902 94.1604 69.9109 94.4162 69.9172C94.9494 69.9311 95.4788 69.9457 95.9962 69.9666C96.2889 69.978 96.5739 69.9919 96.8622 70.0058C97.328 70.0273 97.7906 70.0507 98.2436 70.0779C98.5357 70.095 98.8233 70.1139 99.1097 70.1336C99.5494 70.1633 99.9814 70.1956 100.408 70.2303C100.682 70.2525 100.956 70.2746 101.225 70.2987C101.66 70.3379 102.085 70.3796 102.506 70.4233C102.748 70.4479 102.993 70.472 103.23 70.4985C103.708 70.5517 104.173 70.6092 104.634 70.6681C104.799 70.6889 104.97 70.7079 105.132 70.73C105.75 70.8129 106.354 70.9002 106.941 70.9932C107.061 71.0115 107.175 71.0324 107.294 71.052C107.757 71.1273 108.213 71.2038 108.658 71.2842C108.853 71.3196 109.041 71.3575 109.233 71.3936C109.59 71.4613 109.944 71.5296 110.288 71.6011C110.491 71.6428 110.691 71.6858 110.89 71.7295C111.212 71.799 111.529 71.8693 111.84 71.9414C112.035 71.9863 112.227 72.0318 112.418 72.078C112.724 72.1526 113.023 72.2279 113.318 72.3045C113.495 72.35 113.672 72.3955 113.845 72.4423C114.154 72.5258 114.454 72.6106 114.752 72.6966C114.895 72.7371 115.041 72.7776 115.182 72.8193C115.558 72.9319 115.924 73.0458 116.281 73.1603C116.331 73.1767 116.384 73.1925 116.434 73.2084C116.842 73.3412 117.235 73.4759 117.616 73.6113C117.717 73.6473 117.813 73.6847 117.913 73.7207C118.185 73.82 118.455 73.92 118.714 74.0199C118.841 74.0686 118.961 74.118 119.084 74.1667C119.307 74.2558 119.527 74.3444 119.74 74.4336C119.866 74.4861 119.987 74.5386 120.109 74.5911C120.31 74.6778 120.506 74.7651 120.698 74.8511C120.814 74.9036 120.93 74.9561 121.042 75.0086C121.233 75.0971 121.416 75.1857 121.597 75.2736C121.697 75.3223 121.799 75.3717 121.896 75.4204C122.092 75.5184 122.28 75.6165 122.465 75.7139C122.535 75.7506 122.608 75.7879 122.677 75.8239C122.928 75.9593 123.169 76.0928 123.398 76.2243C123.407 76.2294 123.414 76.2344 123.424 76.2401C123.642 76.366 123.85 76.49 124.048 76.6114C124.112 76.6513 124.172 76.6899 124.233 76.7285C124.372 76.8151 124.508 76.9012 124.636 76.9859C124.706 77.0315 124.77 77.0751 124.837 77.12C124.951 77.1959 125.061 77.2712 125.167 77.3452C125.231 77.3901 125.293 77.4338 125.355 77.478C125.454 77.5495 125.551 77.6197 125.643 77.6887C125.698 77.7298 125.753 77.7703 125.805 77.8101C125.897 77.8803 125.984 77.948 126.069 78.0151C126.112 78.0499 126.158 78.0853 126.2 78.1188C126.293 78.1941 126.378 78.2662 126.461 78.3364C126.486 78.3573 126.513 78.3794 126.537 78.4003C126.641 78.4888 126.736 78.5736 126.823 78.6527C126.848 78.6754 126.868 78.6944 126.891 78.7166C126.941 78.7621 126.992 78.8095 127.036 78.8513L127.736 61.7182L126.158 40.9777ZM57.0179 79.5389L56.1614 61.6707L57.7414 40.9132L57.7433 40.8961C58.5884 34.4694 61.3404 31.4503 75.4177 30.5464C86.3744 29.843 92.2177 29.7734 92.2655 29.7734C92.3138 29.7734 98.1571 29.843 109.114 30.5464C120.491 31.277 125.743 32.9444 126.79 40.9132L128.371 61.7068L127.645 79.5085L127.672 79.5414L127.639 79.6641L127.607 80.4662L127.47 80.2979L120.048 108.019L120.066 108.023L119.961 108.341L119.884 108.63L119.871 108.626C116.402 119.642 116.808 148.757 116.813 149.051C116.817 149.284 117.278 172.474 117.9 176.35C117.952 176.669 118.065 177.106 118.232 177.64L118.285 177.629L118.325 177.936L118.426 178.245L118.367 178.258L122.036 206.585C122.18 207.695 121.542 208.734 120.484 209.111C116.27 210.612 105.076 214.104 92.1999 214.104C79.3278 214.104 68.0396 210.613 63.7826 209.111C62.732 208.74 62.0773 207.671 62.2268 206.57L66.0453 178.26L65.9964 178.25L66.0886 177.941L66.13 177.632L66.1713 177.64C66.2534 177.341 66.319 177.073 66.3514 176.87C66.9731 172.993 67.4351 149.804 67.4395 149.572C67.444 149.284 67.8449 120.622 64.4647 109.413L64.4297 108.305L57.2266 80.4472L57.0739 80.7116L57.0236 79.6616L57.0001 79.5699L57.0179 79.5389Z" fill="#B2D182"/>
<path d="M53.8147 15.6692C53.8147 16.0133 54.0966 16.2941 54.4427 16.2941L56.1926 16.2941C56.3409 15.5591 56.9944 15.0038 57.777 15.0038L74.0718 15.0038C75.0785 15.0038 75.8974 15.8178 75.8974 16.8185C75.8974 16.8679 75.893 18.0355 75.4972 18.7522C74.9678 19.7086 72.2303 22.2571 69.7493 23.4489L114.783 23.4489C112.302 22.2571 109.564 19.7086 109.034 18.7522C108.639 18.0362 108.634 16.8679 108.634 16.8185C108.634 15.8178 109.453 15.0038 110.46 15.0038L126.754 15.0038C127.537 15.0038 128.191 15.5591 128.339 16.2942L130.088 16.2942C130.435 16.2942 130.717 16.0133 130.717 15.6692L130.717 14.6774C130.717 12.7854 130.495 10.8922 130.058 9.04962C129.61 7.15958 129.382 5.21704 129.382 3.27639L129.382 1.38445C129.382 1.03971 129.101 0.759497 128.754 0.759497L55.7777 0.759491C55.4309 0.759491 55.149 1.03971 55.149 1.38444L55.149 3.27638C55.149 5.21893 54.9212 7.16147 54.4726 9.04962C54.0361 10.8916 53.8147 12.7848 53.8147 14.6774L53.8147 15.6692ZM56.7971 23.4489L67.5006 23.4489C69.9097 23.4489 74.32 19.5676 74.9391 18.4473C75.256 17.8742 75.2611 16.8286 75.2611 16.8185C75.2611 16.1664 74.7272 15.6363 74.0718 15.6363L57.777 15.6363C57.2362 15.6363 56.7971 16.0728 56.7971 16.6104L56.7971 23.4489ZM127.735 23.4489L127.735 16.6104C127.735 16.0728 127.295 15.6363 126.754 15.6363L110.46 15.6363C109.804 15.6363 109.27 16.1664 109.27 16.8185C109.27 17.1101 109.328 17.9698 109.592 18.4473C110.211 19.5676 114.622 23.4489 117.031 23.4489L127.735 23.4489ZM53.8541 8.90413C54.2907 7.06343 54.5127 5.17022 54.5127 3.27638L54.5127 1.38444C54.5127 0.691176 55.0797 0.126946 55.7777 0.126947L128.754 0.126953C129.452 0.126953 130.019 0.691182 130.019 1.38445L130.019 3.27639C130.019 5.16833 130.241 7.06217 130.678 8.90414C131.126 10.7942 131.354 12.7367 131.354 14.6774L131.354 15.6692C131.354 16.3625 130.786 16.9267 130.088 16.9267L128.371 16.9267L128.371 24.0814L56.1608 24.0814L56.1608 16.9267L54.4427 16.9267C53.746 16.9267 53.1784 16.3625 53.1784 15.6692L53.1784 14.6774C53.1784 12.7361 53.4062 10.7935 53.8541 8.90413ZM64.4635 9.40194L120.068 9.40195C121.212 9.40195 122.143 8.47654 122.143 7.33922C122.143 6.20191 121.212 5.2765 120.068 5.2765L64.4635 5.27649C63.32 5.27649 62.3891 6.2019 62.3891 7.33922C62.3891 8.47653 63.32 9.40194 64.4635 9.40194ZM64.4635 4.64395L120.068 4.64395C121.563 4.64395 122.779 5.85274 122.779 7.33922C122.779 8.82507 121.563 10.0345 120.068 10.0345L64.4635 10.0345C62.9687 10.0345 61.7527 8.82506 61.7527 7.33922C61.7527 5.85274 62.9687 4.64395 64.4635 4.64395ZM107.622 21.5639C107.456 18.2671 104.706 15.6363 101.349 15.6363L83.1826 15.6363C79.8254 15.6363 77.0759 18.2671 76.9092 21.5639L107.622 21.5639ZM83.1826 15.0038L101.349 15.0038C105.163 15.0038 108.266 18.088 108.266 21.8801L108.266 22.1964L76.2646 22.1964L76.2646 21.8801C76.2646 18.088 79.3679 15.0038 83.1826 15.0038Z" fill="#B2D182"/>
<path d="M144.148 91.3707C143.912 91.2898 143.581 91.3151 143.361 91.6231C142.165 93.3012 140.562 95.8751 138.841 98.8778L138.841 99.7368C138.841 101.039 139.907 102.097 141.216 102.097L142.22 102.097C142.325 102.097 142.428 102.09 142.531 102.077C142.563 102.072 142.595 102.063 142.627 102.058C142.696 102.046 142.765 102.034 142.832 102.016C142.87 102.006 142.907 101.991 142.945 101.978C143.004 101.959 143.064 101.941 143.121 101.917C143.16 101.901 143.197 101.881 143.235 101.863C143.289 101.837 143.343 101.813 143.395 101.783C143.432 101.762 143.467 101.736 143.503 101.713C143.553 101.681 143.602 101.65 143.649 101.615C143.684 101.589 143.715 101.558 143.749 101.531C143.793 101.493 143.839 101.456 143.88 101.415C143.912 101.384 143.941 101.35 143.971 101.317C144.01 101.274 144.05 101.231 144.086 101.185C144.113 101.15 144.138 101.112 144.163 101.075C144.191 101.035 144.218 100.996 144.243 100.955L144.615 92.0532C144.632 91.6731 144.385 91.4511 144.148 91.3707ZM138.631 101.247C138.578 101.158 138.526 101.07 138.482 100.976C138.446 100.897 138.418 100.815 138.389 100.732C138.354 100.635 138.321 100.538 138.296 100.436C138.275 100.349 138.262 100.261 138.249 100.173C138.239 100.108 138.22 100.046 138.215 99.9803C135.331 105.105 131.977 111.713 130.602 116.001C128.201 123.484 127.905 131.073 127.871 133.22C127.87 133.315 127.923 133.372 127.955 133.397C128.011 133.441 128.084 133.457 128.157 133.439L141.848 130.249C142.608 130.089 143.743 129.631 143.764 129.165L144.223 101.965C144.205 101.981 144.183 101.993 144.163 102.009C144.062 102.095 143.957 102.173 143.845 102.244C143.818 102.262 143.791 102.283 143.763 102.3C143.625 102.383 143.479 102.454 143.33 102.514C143.294 102.528 143.257 102.538 143.22 102.552C143.1 102.594 142.976 102.629 142.851 102.656C142.805 102.666 142.76 102.676 142.714 102.684C142.552 102.711 142.387 102.73 142.22 102.73L141.216 102.73C141.013 102.73 140.816 102.708 140.624 102.67C140.559 102.657 140.5 102.633 140.437 102.615C140.313 102.583 140.189 102.551 140.072 102.503C140.001 102.473 139.936 102.433 139.868 102.398C139.767 102.348 139.665 102.299 139.571 102.238C139.502 102.194 139.443 102.14 139.378 102.091C139.294 102.025 139.208 101.962 139.131 101.888C139.071 101.83 139.019 101.766 138.964 101.703C138.895 101.625 138.825 101.548 138.765 101.464C138.715 101.394 138.675 101.32 138.631 101.247ZM144.4 129.184C144.349 130.335 142.222 130.817 141.987 130.867L128.306 134.054C128.236 134.071 128.165 134.079 128.095 134.079C127.902 134.079 127.714 134.015 127.559 133.892C127.349 133.726 127.231 133.477 127.235 133.211C127.269 131.041 127.568 123.374 129.995 115.808C131.48 111.181 135.231 103.904 138.246 98.6374C139.992 95.5866 141.625 92.9654 142.841 91.2575C143.191 90.7685 143.784 90.5788 144.354 90.7723C144.926 90.9672 145.278 91.4808 145.251 92.0804L144.876 101.061L144.4 129.184ZM137.975 188.276C138.65 189.404 139.823 189.559 140.622 189.351C141.42 189.142 142.363 188.433 142.394 187.12L142.646 176.424L128.962 171.685L137.975 188.276ZM128.397 170.82L143.075 175.902C143.205 175.948 143.291 176.072 143.288 176.209L143.03 187.135C142.998 188.504 142.116 189.614 140.783 189.963C140.514 190.033 140.244 190.068 139.98 190.068C138.942 190.068 137.989 189.535 137.421 188.588L128.012 171.269C127.949 171.154 127.965 171.013 128.05 170.914C128.135 170.814 128.273 170.778 128.397 170.82ZM128.58 166.314C128.588 166.415 128.656 166.501 128.752 166.533L142.769 171.158L143.576 136.565L128.277 138.117C128.15 138.13 128.053 138.234 128.049 138.361C128.016 139.734 127.922 143.638 127.871 146.249C127.713 154.322 128.434 164.38 128.58 166.314ZM127.413 138.345C127.424 137.901 127.767 137.533 128.212 137.488L143.871 135.9C143.961 135.894 144.051 135.921 144.119 135.982C144.186 136.044 144.223 136.131 144.221 136.222L143.395 171.6C143.394 171.701 143.343 171.794 143.261 171.852C143.206 171.89 143.142 171.909 143.077 171.909C143.044 171.909 143.01 171.904 142.977 171.893L128.552 167.133C128.211 167.02 127.973 166.717 127.946 166.361C127.799 164.423 127.076 154.337 127.235 146.237C127.286 143.625 127.38 139.72 127.413 138.345ZM125.22 166.252C125.338 173.57 127.355 177.908 127.373 177.949L141.658 207.226C141.681 207.272 141.692 207.325 141.689 207.377C141.686 207.449 141.371 214.58 141.49 217.848C141.599 220.815 144.277 220.863 144.368 220.863L147.042 220.68L147.042 212.719C147.042 212.545 147.185 212.403 147.36 212.403L151.969 212.403C152.797 212.403 153.509 213.018 153.624 213.834L154.52 220.167L156.397 220.039L156.397 198.486C156.397 198.118 156.401 197.767 156.408 197.426C156.411 197.312 156.414 197.207 156.418 197.096C156.423 196.874 156.43 196.654 156.439 196.443C156.444 196.322 156.45 196.204 156.456 196.086C156.465 195.899 156.475 195.715 156.486 195.536C156.493 195.421 156.501 195.309 156.509 195.197C156.521 195.024 156.535 194.856 156.549 194.692C156.558 194.593 156.567 194.493 156.575 194.397C156.592 194.227 156.609 194.066 156.626 193.907C156.635 193.828 156.644 193.747 156.652 193.671C156.677 193.467 156.703 193.272 156.729 193.086C156.731 193.064 156.735 193.04 156.738 193.019C156.767 192.814 156.798 192.623 156.829 192.44C156.84 192.375 156.851 192.317 156.862 192.255C156.883 192.139 156.903 192.026 156.924 191.921C156.937 191.856 156.95 191.795 156.962 191.733C156.982 191.64 157.001 191.55 157.02 191.464C157.034 191.406 157.046 191.351 157.059 191.296C157.078 191.215 157.097 191.139 157.116 191.066C157.128 191.019 157.14 190.971 157.152 190.926C157.171 190.853 157.19 190.787 157.208 190.723C157.219 190.687 157.229 190.65 157.239 190.616C157.262 190.538 157.284 190.469 157.305 190.404C157.309 190.392 157.314 190.377 157.317 190.365C157.343 190.289 157.366 190.224 157.387 190.166C157.393 190.148 157.398 190.135 157.405 190.118C157.415 190.091 157.426 190.06 157.435 190.038C155.753 187.467 154.862 184.488 154.859 181.41C154.855 177.202 156.576 173.218 159.705 170.191C162.812 167.186 166.874 165.53 171.142 165.53L175.556 165.53L175.556 79.4675L171.142 79.4675C162.426 79.4675 155.125 72.5715 154.867 64.0948C154.752 60.3248 155.988 56.6396 158.347 53.7052L157.882 37.9966C157.879 37.9966 157.877 37.996 157.874 37.9966C157.818 37.9973 157.751 38.0017 157.676 38.0087C157.66 38.0099 157.642 38.0124 157.625 38.0137C157.554 38.0219 157.475 38.0333 157.387 38.0485C157.371 38.0517 157.356 38.0529 157.338 38.0561C157.237 38.0751 157.125 38.101 157.003 38.132C156.974 38.139 156.943 38.1478 156.913 38.156C156.798 38.187 156.674 38.2243 156.541 38.2686C156.52 38.2756 156.502 38.2806 156.481 38.2882C156.332 38.3388 156.168 38.4015 155.997 38.471C155.955 38.4881 155.911 38.5071 155.868 38.5254C155.699 38.5963 155.522 38.676 155.332 38.7671C155.316 38.7753 155.3 38.7816 155.284 38.7898C155.082 38.8885 154.864 39.0036 154.639 39.1276C154.584 39.158 154.528 39.189 154.471 39.2212C154.235 39.3547 153.99 39.4977 153.728 39.6615C153.693 39.6836 153.655 39.7121 153.613 39.7469C153.573 39.7823 153.529 39.8253 153.483 39.8766C153.206 40.1865 152.833 40.8121 152.38 42.0576C152.359 42.1145 152.32 42.1594 152.274 42.1942C152.266 42.2005 152.26 42.2075 152.251 42.2132C152.205 42.2423 152.153 42.2574 152.098 42.2612C152.091 42.2612 152.087 42.2663 152.081 42.2663C152.062 42.2663 152.043 42.265 152.024 42.2612C151.871 42.234 151.76 42.1006 151.762 41.9469C151.763 41.8798 151.766 41.7932 151.77 41.697C151.771 41.6787 151.771 41.6616 151.773 41.6426C151.776 41.5458 151.782 41.437 151.789 41.3162C151.791 41.2909 151.792 41.2644 151.794 41.2378C151.801 41.1106 151.81 40.9772 151.82 40.8298C151.822 40.8108 151.823 40.7899 151.824 40.771C151.833 40.6362 151.843 40.4933 151.854 40.3446C151.857 40.3042 151.86 40.2656 151.863 40.2245C151.875 40.0644 151.888 39.8968 151.901 39.7241C151.905 39.6741 151.909 39.6242 151.913 39.5736C151.926 39.399 151.94 39.2212 151.955 39.0372C151.959 38.9809 151.964 38.9227 151.969 38.8657C151.979 38.7335 151.99 38.6001 152.002 38.4641C152.009 38.3812 152.015 38.299 152.022 38.2149C152.036 38.0529 152.049 37.8885 152.063 37.7234C152.071 37.6298 152.079 37.5374 152.087 37.4432C152.102 37.2648 152.117 37.0864 152.133 36.9074C152.139 36.8328 152.145 36.7587 152.152 36.6835C152.163 36.5595 152.173 36.4361 152.184 36.3128C152.2 36.1388 152.215 35.9674 152.229 35.796C152.235 35.7321 152.241 35.6676 152.247 35.6037C152.306 34.9256 152.364 34.2861 152.414 33.7282C152.416 33.7055 152.418 33.6839 152.42 33.6618C152.43 33.5587 152.439 33.4581 152.448 33.3613C152.448 33.3525 152.449 33.3443 152.45 33.3348C152.478 33.0293 152.503 32.7503 152.524 32.5251C151.142 33.7124 149.775 36.7954 145.912 57.7447C144.211 68.3297 143.593 73.748 143.584 73.8189L141.47 86.2743C141.464 86.3091 141.452 86.3426 141.435 86.3742C141.328 86.5665 130.746 105.769 127.832 114.513C124.928 123.231 125.145 136.08 125.147 136.209C125.147 136.214 125.147 136.22 125.146 136.226C124.884 143.756 125.136 161.111 125.22 166.252ZM147.678 220.637L153.883 220.211L152.994 213.922C152.923 213.417 152.482 213.036 151.969 213.036L147.678 213.036L147.678 220.637ZM157.034 220.211L159.676 223.059C159.828 223.223 160.044 223.317 160.268 223.317L167.51 223.317C167.755 223.317 167.983 223.208 168.137 223.018L169.486 221.35C169.748 221.026 170.137 220.832 170.553 220.816L171.593 220.775C171.987 220.76 172.309 220.469 172.36 220.083C172.735 217.233 173.613 210.29 173.652 207.377C173.696 204.178 173.626 198.629 173.608 197.26L170.819 197.26C165.677 197.26 160.888 194.814 157.885 190.688C157.873 190.728 157.861 190.767 157.848 190.812C157.842 190.833 157.836 190.852 157.83 190.874C157.805 190.96 157.779 191.055 157.752 191.157C157.745 191.186 157.737 191.217 157.73 191.247C157.709 191.329 157.688 191.416 157.667 191.507C157.658 191.546 157.649 191.584 157.64 191.625C157.612 191.75 157.584 191.881 157.556 192.023C157.555 192.029 157.553 192.036 157.552 192.044C157.524 192.188 157.496 192.344 157.467 192.506C157.459 192.556 157.45 192.607 157.442 192.658C157.42 192.79 157.399 192.926 157.378 193.069C157.371 193.12 157.363 193.169 157.356 193.222C157.329 193.414 157.303 193.614 157.278 193.826C157.273 193.866 157.269 193.91 157.264 193.95C157.244 194.129 157.225 194.314 157.207 194.506C157.2 194.577 157.193 194.649 157.187 194.722C157.169 194.92 157.153 195.125 157.139 195.338C157.135 195.389 157.13 195.437 157.127 195.489C157.11 195.75 157.095 196.025 157.082 196.308C157.078 196.38 157.076 196.456 157.073 196.53C157.064 196.756 157.056 196.989 157.05 197.23C157.048 197.319 157.046 197.407 157.044 197.498C157.037 197.817 157.034 198.143 157.034 198.486L157.034 220.211ZM158.963 52.9848C161.992 49.6399 166.267 47.7378 170.819 47.7378L175.556 47.7378L175.556 37.7019C175.556 30.5219 173.336 29.1423 173.318 29.1315C173.267 29.1043 173.225 29.0638 173.196 29.0145C173.115 28.8766 172.984 28.783 172.826 28.7507C172.77 28.7387 172.714 28.7457 172.658 28.7507L172.658 32.1304C172.658 32.3765 172.544 32.6017 172.345 32.7478C172.21 32.8471 172.051 32.899 171.888 32.899C171.812 32.899 171.734 32.8876 171.659 32.8648L168.263 31.8306C167.937 31.7306 167.718 31.4359 167.718 31.0962L167.718 28.8235L166.981 28.7014C166.827 28.6761 166.715 28.5439 166.715 28.3896L166.715 27.585L161.622 27.2756C161.172 27.251 160.729 27.4066 160.4 27.7102L159.714 28.344L159.714 36.4134C159.714 36.4937 159.683 36.5702 159.629 36.6291L158.513 37.8221L158.963 52.9848ZM172.022 29.1537L171.626 29.394C171.607 29.4048 171.587 29.4086 171.566 29.4162C171.552 29.4212 171.54 29.4288 171.526 29.4314C171.487 29.4396 171.447 29.4415 171.408 29.4358L170.587 29.2992L168.354 28.9291L168.354 31.0962C168.354 31.1563 168.393 31.2082 168.45 31.2259L171.846 32.2601C171.904 32.2778 171.946 32.2544 171.967 32.2392C171.987 32.224 172.022 32.1899 172.022 32.1304L172.022 29.1537ZM159.077 28.697C157.941 29.2207 154.911 30.6711 153.21 32.014C153.188 32.2512 153.136 32.8161 153.067 33.5714C153.054 33.7225 153.039 33.88 153.025 34.0451C153.017 34.1305 153.01 34.2134 153.002 34.3019C152.997 34.3525 152.992 34.4057 152.988 34.4569C152.975 34.6043 152.961 34.7536 152.947 34.9073C152.942 34.9693 152.936 35.0325 152.931 35.0952C152.918 35.2368 152.906 35.3792 152.892 35.5246C152.885 35.6119 152.877 35.6999 152.87 35.7884C152.859 35.9004 152.85 36.0136 152.84 36.1268C152.829 36.2451 152.819 36.3647 152.808 36.4842C152.8 36.5829 152.791 36.6828 152.782 36.7828C152.773 36.8928 152.764 37.0023 152.754 37.113C152.742 37.2502 152.731 37.3869 152.719 37.5241C152.714 37.5918 152.708 37.6595 152.702 37.7265C152.689 37.884 152.675 38.0396 152.663 38.1946C152.657 38.2636 152.651 38.3338 152.646 38.4034C152.633 38.5476 152.622 38.6886 152.611 38.8291C152.605 38.8961 152.599 38.9651 152.594 39.0315C152.581 39.1871 152.569 39.3383 152.558 39.4875C152.554 39.5362 152.549 39.5868 152.546 39.6356C152.531 39.8297 152.516 40.0176 152.503 40.1966C152.797 39.6666 153.091 39.313 153.389 39.1264C153.58 39.0062 153.764 38.8961 153.943 38.7917C153.998 38.7595 154.051 38.7304 154.104 38.7C154.227 38.6304 154.347 38.5628 154.464 38.4995C154.522 38.4679 154.579 38.4375 154.637 38.4078C154.746 38.3502 154.853 38.2958 154.957 38.2446C155.008 38.2193 155.06 38.1927 155.111 38.1687C155.223 38.1149 155.331 38.0656 155.436 38.0188C155.473 38.0023 155.511 37.9846 155.546 37.9694C155.684 37.9093 155.817 37.8543 155.944 37.8056C155.968 37.7961 155.989 37.7892 156.014 37.7797C156.114 37.7417 156.212 37.7063 156.306 37.674C156.348 37.6601 156.386 37.6475 156.427 37.6348C156.499 37.6114 156.57 37.5893 156.638 37.5697C156.679 37.5576 156.719 37.5469 156.758 37.5361C156.82 37.5191 156.88 37.5039 156.939 37.49C156.976 37.4811 157.013 37.4716 157.048 37.464C157.108 37.4507 157.164 37.44 157.219 37.4299C157.247 37.4248 157.276 37.4185 157.303 37.4141C157.377 37.4014 157.447 37.3913 157.513 37.3837C157.546 37.3799 157.575 37.3774 157.606 37.3748C157.639 37.3717 157.674 37.3685 157.705 37.366C157.736 37.3641 157.764 37.3628 157.792 37.3622C157.819 37.3609 157.844 37.3603 157.869 37.3597C157.895 37.3597 157.919 37.3597 157.943 37.3603C157.966 37.3603 157.986 37.3616 158.007 37.3622C158.026 37.3635 158.047 37.3641 158.064 37.3654C158.066 37.3654 158.07 37.366 158.071 37.366L159.077 36.2894L159.077 28.697ZM124.511 136.212C124.504 135.813 124.321 123.04 127.229 114.314C130.089 105.729 140.262 87.1877 140.851 86.1168L142.954 73.731C142.96 73.6772 143.579 68.2462 145.285 57.6378C149.705 33.6631 150.908 32.8174 152.718 31.5959C154.782 29.9235 158.754 28.1435 159.218 27.9385L159.966 27.2472C160.422 26.8265 161.037 26.6089 161.662 26.6444L167.052 26.972C167.22 26.9821 167.351 27.1207 167.351 27.2877L167.351 28.1214L168.087 28.2434C168.088 28.2441 168.088 28.2434 168.088 28.2434L171.381 28.7893L172.007 28.3358C172.28 28.1378 172.624 28.0619 172.956 28.1315C173.26 28.1941 173.528 28.3731 173.702 28.6268C174.14 28.9316 176.192 30.7331 176.192 37.7019L176.192 48.0541C176.192 48.2287 176.05 48.3704 175.874 48.3704L170.819 48.3704C166.183 48.3704 161.845 50.4268 158.917 54.0114C158.916 54.012 158.916 54.012 158.915 54.0127C156.603 56.8446 155.391 60.4184 155.503 64.0758C155.751 72.2141 162.767 78.835 171.142 78.835L175.874 78.835C176.05 78.835 176.192 78.9766 176.192 79.1512L176.192 165.846C176.192 166.021 176.05 166.163 175.874 166.163L171.142 166.163C167.04 166.163 163.136 167.754 160.149 170.644C157.144 173.55 155.492 177.374 155.496 181.41C155.498 184.419 156.385 187.331 158.059 189.829C160.913 194.086 165.683 196.627 170.819 196.627L173.922 196.627C174.096 196.627 174.238 196.767 174.24 196.939C174.241 197.007 174.338 203.726 174.289 207.386C174.249 210.332 173.368 217.304 172.991 220.166C172.9 220.858 172.322 221.38 171.619 221.408L170.578 221.448C170.345 221.457 170.128 221.566 169.982 221.746L168.633 223.415C168.358 223.755 167.948 223.949 167.51 223.949L160.268 223.949C159.866 223.949 159.48 223.782 159.209 223.488L156.585 220.66L154.278 220.818C154.275 220.818 154.271 220.821 154.268 220.821L147.382 221.293C147.375 221.293 147.367 221.293 147.36 221.293C147.358 221.293 147.356 221.292 147.355 221.292L144.39 221.495C144.356 221.495 140.986 221.454 140.855 217.871C140.741 214.766 141.016 208.229 141.051 207.429L126.799 178.222C126.714 178.041 124.704 173.729 124.583 166.262C124.499 161.12 124.248 143.761 124.511 136.212ZM127.236 168.296L148.777 175.603C149.543 175.862 150.336 175.982 151.148 175.965L154.069 175.896C154.154 175.566 154.331 174.942 154.6 174.299C157.282 168.252 163.054 164.241 169.672 163.82C169.7 163.812 169.728 163.808 169.757 163.808C171.724 163.808 173.325 162.217 173.325 160.262L173.325 133.121L172.048 132.887C170.508 132.604 168.931 132.461 167.362 132.461L152.868 132.461C152.178 132.461 151.484 132.513 150.805 132.615L143.953 133.646L126.564 136.454C126.003 152.87 127.083 166.483 127.236 168.296ZM173.325 90.0886C173.325 88.1321 171.724 86.5412 169.757 86.5412L150.31 86.5412L149.914 86.5393C146.52 86.5134 143.308 86.4982 135.914 100.786C128.27 115.555 127.218 118.233 126.586 135.809L143.855 133.021L150.709 131.99C151.419 131.883 152.146 131.828 152.868 131.828L167.362 131.828C168.97 131.828 170.585 131.975 172.164 132.265L173.325 132.478L173.325 90.0886ZM135.348 100.496C142.393 86.8828 145.678 85.8847 149.918 85.9058L169.757 85.9087C172.075 85.9087 173.961 87.7836 173.961 90.0886L173.961 160.262C173.961 162.546 172.107 164.409 169.816 164.44C169.8 164.444 169.783 164.447 169.765 164.448C163.362 164.835 157.775 168.708 155.185 174.549C154.825 175.409 154.634 176.266 154.632 176.275C154.6 176.418 154.476 176.52 154.329 176.524L151.162 176.598C151.103 176.6 151.043 176.6 150.984 176.6C150.163 176.6 149.352 176.466 148.572 176.202L126.834 168.829C126.716 168.788 126.632 168.682 126.62 168.558C126.607 168.413 125.315 153.904 125.936 136.204C126.569 118.108 127.585 115.497 135.348 100.496Z" fill="#B2D182"/>
<path d="M41.4899 92.0532L41.8621 100.955C41.8869 100.996 41.9143 101.035 41.941 101.075C41.9671 101.111 41.9913 101.15 42.0193 101.185C42.0555 101.231 42.095 101.274 42.1344 101.317C42.1644 101.35 42.1924 101.384 42.2242 101.415C42.2668 101.456 42.3113 101.493 42.3559 101.531C42.3896 101.558 42.4214 101.588 42.4558 101.615C42.5029 101.65 42.5531 101.681 42.6021 101.713C42.6384 101.736 42.6728 101.762 42.7103 101.783C42.7619 101.813 42.8166 101.837 42.8707 101.863C42.9082 101.881 42.9451 101.901 42.9839 101.917C43.0412 101.941 43.101 101.959 43.1602 101.978C43.1984 101.991 43.2346 102.006 43.2735 102.016C43.3396 102.034 43.409 102.046 43.4771 102.058C43.5102 102.063 43.542 102.072 43.5744 102.077C43.6769 102.09 43.7812 102.097 43.8856 102.097L44.8891 102.097C46.1986 102.097 47.2644 101.039 47.2644 99.7368L47.2644 98.8778C45.5432 95.8751 43.9403 93.3012 42.7447 91.6231C42.5245 91.3151 42.193 91.2898 41.9576 91.3707C41.7202 91.4511 41.4733 91.6731 41.4899 92.0532ZM47.3402 101.464C47.2797 101.548 47.2104 101.625 47.141 101.703C47.0863 101.766 47.0341 101.83 46.9743 101.888C46.8966 101.962 46.8114 102.025 46.7261 102.091C46.6625 102.14 46.6027 102.194 46.5346 102.238C46.4404 102.299 46.3386 102.348 46.2374 102.398C46.1687 102.433 46.1044 102.473 46.0332 102.503C45.9161 102.551 45.792 102.583 45.6679 102.615C45.6055 102.633 45.5457 102.657 45.4802 102.67C45.2893 102.708 45.0914 102.73 44.8891 102.73L43.8856 102.73C43.7182 102.73 43.5534 102.711 43.3912 102.684C43.3454 102.676 43.3002 102.666 43.2544 102.656C43.129 102.629 43.0062 102.594 42.8853 102.552C42.849 102.538 42.8115 102.528 42.7752 102.514C42.625 102.454 42.4812 102.383 42.3425 102.3C42.3139 102.283 42.2878 102.262 42.2592 102.244C42.1484 102.173 42.0428 102.095 41.9416 102.009C41.9232 101.993 41.9003 101.981 41.8818 101.965L42.3419 129.165C42.3622 129.631 43.4968 130.089 44.2578 130.249L57.9482 133.439C58.0207 133.457 58.0945 133.441 58.1499 133.397C58.1817 133.372 58.2352 133.315 58.2334 133.22C58.2002 131.073 57.9043 123.484 55.5035 116.001C54.1284 111.713 50.7744 105.105 47.8912 99.9803C47.8855 100.046 47.8657 100.108 47.8562 100.173C47.8428 100.261 47.8301 100.349 47.8091 100.436C47.7843 100.538 47.7512 100.635 47.7162 100.732C47.6863 100.815 47.6583 100.897 47.6227 100.976C47.5788 101.07 47.5266 101.158 47.4744 101.247C47.4305 101.32 47.3898 101.394 47.3402 101.464ZM41.2302 101.061L40.8542 92.0804C40.8274 91.4808 41.18 90.9672 41.7514 90.7723C42.3215 90.5788 42.9146 90.7685 43.2639 91.2575C44.4799 92.9654 46.1121 95.586 47.8588 98.6368C50.8736 103.903 54.626 111.181 56.1105 115.808C58.5368 123.374 58.8365 131.041 58.8699 133.211C58.874 133.477 58.7563 133.726 58.5463 133.892C58.3911 134.015 58.2034 134.079 58.0099 134.079C57.9406 134.079 57.8693 134.071 57.7993 134.054L44.1185 130.867C43.883 130.817 41.7571 130.335 41.7056 129.184L41.2302 101.061ZM57.1439 171.685L43.4586 176.424L43.7112 187.12C43.7418 188.433 44.6848 189.142 45.4834 189.351C46.2826 189.559 47.4547 189.404 48.1311 188.276L57.1439 171.685ZM58.0551 170.914C58.1404 171.013 58.155 171.154 58.0933 171.269L48.6841 188.588C48.1158 189.535 47.1632 190.068 46.1248 190.068C45.8607 190.068 45.5916 190.033 45.3218 189.963C43.9893 189.614 43.1074 188.504 43.0749 187.135L42.817 176.209C42.814 176.072 42.8999 175.948 43.0304 175.902L57.7083 170.82C57.8324 170.778 57.9698 170.814 58.0551 170.914ZM58.2333 146.249C58.1824 143.638 58.0888 139.734 58.0557 138.361C58.0525 138.234 57.9552 138.13 57.8286 138.117L42.529 136.565L43.3358 171.158L57.3526 166.533C57.4493 166.501 57.5168 166.415 57.525 166.314C57.6714 164.38 58.3917 154.322 58.2333 146.249ZM58.8696 146.237C59.028 154.337 58.3064 164.423 58.1594 166.361C58.1321 166.717 57.8941 167.02 57.553 167.133L43.1277 171.893C43.0946 171.904 43.0616 171.909 43.0278 171.909C42.9629 171.909 42.8987 171.89 42.8446 171.852C42.7618 171.794 42.7122 171.701 42.7097 171.6L41.884 136.222C41.8818 136.131 41.9194 136.044 41.9862 135.982C42.0536 135.921 42.144 135.894 42.235 135.9L57.8928 137.488C58.3383 137.533 58.6819 137.901 58.6921 138.345C58.7251 139.72 58.8187 143.625 58.8696 146.237ZM60.9586 136.226C60.9586 136.22 60.9586 136.214 60.9586 136.209C60.9612 136.08 61.1769 123.231 58.2727 114.513C55.359 105.769 44.7771 86.5665 44.6702 86.3743C44.6536 86.3426 44.6415 86.3091 44.6352 86.2743L42.5213 73.8189C42.5124 73.748 41.8952 68.3297 40.193 57.7447C36.3306 36.7954 34.9632 33.7124 33.5811 32.5251C33.6014 32.7503 33.6275 33.0293 33.6549 33.3348C33.6555 33.3443 33.6568 33.3525 33.6574 33.3613C33.6663 33.4581 33.6759 33.5587 33.6848 33.6618C33.6867 33.6839 33.6886 33.7055 33.6905 33.7282C33.7414 34.2861 33.7987 34.9256 33.8585 35.6037C33.8642 35.6676 33.8693 35.7321 33.8757 35.796C33.891 35.9674 33.9056 36.1388 33.9202 36.3128C33.9317 36.4361 33.9425 36.5595 33.9527 36.6835C33.959 36.7587 33.966 36.8328 33.9724 36.9074C33.9877 37.0864 34.003 37.2648 34.0182 37.4432C34.0259 37.5374 34.0335 37.6298 34.0418 37.7234C34.0551 37.8885 34.0698 38.0529 34.0825 38.2149C34.0901 38.299 34.0965 38.3812 34.1035 38.4641C34.1143 38.6001 34.1258 38.7335 34.1359 38.8657C34.141 38.9227 34.1455 38.9809 34.1506 39.0372C34.1646 39.2212 34.1792 39.399 34.1926 39.5736C34.1964 39.6242 34.2008 39.6741 34.2047 39.7241C34.2174 39.8968 34.2308 40.0644 34.2422 40.2245C34.2448 40.2656 34.2479 40.3042 34.2511 40.3446C34.2619 40.4933 34.2715 40.6362 34.281 40.771C34.2823 40.7899 34.2842 40.8108 34.2855 40.8298C34.295 40.9772 34.3033 41.1106 34.3116 41.2378C34.3128 41.2644 34.3147 41.2909 34.316 41.3162C34.3224 41.437 34.3287 41.5458 34.3332 41.6426C34.3338 41.6616 34.3345 41.6787 34.3351 41.697C34.3396 41.7932 34.3421 41.8798 34.3434 41.9469C34.344 42.1006 34.2346 42.234 34.0812 42.2612C34.0621 42.265 34.0437 42.2663 34.0246 42.2663C34.0182 42.2663 34.0131 42.2612 34.0068 42.2612C33.9514 42.2574 33.8992 42.2423 33.8541 42.2132C33.8451 42.2075 33.8394 42.2005 33.8312 42.1942C33.786 42.1588 33.7465 42.1145 33.7255 42.0576C33.2725 40.8115 32.8989 40.1865 32.6215 39.8766C32.5757 39.8253 32.5324 39.7823 32.4911 39.7469C32.4503 39.7121 32.4122 39.6836 32.3778 39.6615C32.1156 39.4977 31.8707 39.3547 31.6339 39.2212C31.5773 39.189 31.5213 39.158 31.4666 39.1276C31.2413 39.0036 31.0231 38.8885 30.8207 38.7898C30.8042 38.7816 30.7895 38.7753 30.773 38.7671C30.5827 38.6754 30.4059 38.5963 30.2366 38.5254C30.194 38.5071 30.1501 38.4881 30.1081 38.471C29.9369 38.4015 29.7734 38.3388 29.6245 38.2882C29.6028 38.2806 29.5844 38.2756 29.564 38.2686C29.431 38.2243 29.3069 38.187 29.1918 38.156C29.1619 38.1478 29.1313 38.139 29.102 38.132C28.9811 38.101 28.8672 38.0751 28.7667 38.0561C28.7495 38.0529 28.7342 38.0517 28.7177 38.0485C28.6305 38.0333 28.5503 38.0219 28.4797 38.0137C28.4625 38.0124 28.4454 38.0099 28.4294 38.0086C28.3537 38.0017 28.2863 37.9973 28.2309 37.996C28.2284 37.996 28.2258 37.9966 28.2233 37.996L27.7581 53.7052C30.1176 56.6396 31.3527 60.3248 31.2388 64.0948C30.9798 72.5715 23.6787 79.4675 14.9631 79.4675L10.5496 79.4675L10.5496 165.53L14.9631 165.53C19.2315 165.53 23.2931 167.186 26.4002 170.191C29.529 173.218 31.2496 177.202 31.2458 181.41C31.2426 184.488 30.3524 187.467 28.67 190.038C28.6789 190.06 28.6903 190.091 28.6999 190.118C28.7062 190.135 28.712 190.148 28.7183 190.166C28.7393 190.224 28.7622 190.289 28.7877 190.365C28.7915 190.377 28.7959 190.392 28.7998 190.404C28.8208 190.469 28.843 190.538 28.8659 190.616C28.8761 190.65 28.8863 190.687 28.8965 190.723C28.9149 190.787 28.934 190.853 28.9531 190.926C28.9646 190.971 28.9773 191.019 28.9888 191.066C29.0079 191.139 29.0269 191.215 29.0454 191.296C29.0588 191.351 29.0715 191.406 29.0848 191.464C29.1039 191.55 29.123 191.64 29.1427 191.733C29.1555 191.795 29.1682 191.856 29.1809 191.921C29.2019 192.026 29.2229 192.139 29.2433 192.255C29.2541 192.317 29.2656 192.375 29.2764 192.44C29.3069 192.623 29.3375 192.814 29.3674 193.019C29.3705 193.04 29.3731 193.064 29.3763 193.086C29.4024 193.272 29.4278 193.467 29.4526 193.671C29.4615 193.747 29.4698 193.828 29.4787 193.907C29.4959 194.066 29.5137 194.227 29.5296 194.397C29.5392 194.493 29.5468 194.593 29.5557 194.692C29.5704 194.856 29.5831 195.024 29.5964 195.197C29.6034 195.308 29.6117 195.421 29.6187 195.536C29.6295 195.715 29.6404 195.899 29.6499 196.086C29.655 196.204 29.6613 196.322 29.6664 196.443C29.6753 196.654 29.6811 196.874 29.6874 197.096C29.6906 197.207 29.6944 197.312 29.697 197.426C29.704 197.767 29.7078 198.118 29.7078 198.486L29.7078 220.039L31.5856 220.167L32.4809 213.834C32.596 213.018 33.3081 212.403 34.1366 212.403L38.7454 212.403C38.921 212.403 39.0636 212.545 39.0636 212.719L39.0636 220.68L41.7367 220.863C41.8277 220.863 44.506 220.815 44.6148 217.848C44.7344 214.58 44.4188 207.449 44.4156 207.377C44.4131 207.325 44.4239 207.272 44.4468 207.226L58.7321 177.949C58.7506 177.908 60.7671 173.57 60.8854 166.252C60.9694 161.111 61.2214 143.756 60.9586 136.226ZM38.4273 213.036L34.1366 213.036C33.6237 213.036 33.1821 213.417 33.1108 213.922L32.2219 220.211L38.4273 220.637L38.4273 213.036ZM29.0715 198.486C29.0715 198.143 29.0677 197.817 29.0613 197.498C29.0594 197.407 29.0575 197.319 29.0549 197.23C29.0486 196.989 29.0416 196.756 29.032 196.53C29.0288 196.455 29.0263 196.38 29.0231 196.308C29.0104 196.025 28.9951 195.75 28.9779 195.489C28.9741 195.437 28.9703 195.389 28.9665 195.338C28.9518 195.125 28.9353 194.92 28.9181 194.722C28.9118 194.649 28.9054 194.577 28.8984 194.506C28.8806 194.314 28.8609 194.129 28.8411 193.95C28.836 193.91 28.8316 193.866 28.8278 193.826C28.803 193.614 28.7762 193.414 28.7495 193.222C28.7419 193.169 28.7342 193.12 28.7266 193.069C28.7056 192.926 28.6846 192.79 28.6636 192.658C28.6547 192.607 28.6458 192.556 28.6381 192.506C28.6101 192.344 28.5815 192.188 28.5535 192.044C28.5516 192.036 28.5503 192.029 28.5491 192.023C28.5211 191.881 28.4924 191.75 28.4651 191.625C28.4562 191.584 28.4473 191.546 28.4377 191.507C28.4167 191.416 28.3957 191.329 28.3753 191.247C28.3677 191.217 28.3601 191.186 28.3524 191.157C28.3257 191.055 28.3003 190.96 28.2754 190.874C28.2697 190.852 28.2634 190.833 28.257 190.812C28.2443 190.767 28.2322 190.728 28.2194 190.688C25.2167 194.814 20.4271 197.26 15.2863 197.26L12.4973 197.26C12.4789 198.629 12.4101 204.178 12.4528 207.377C12.4922 210.29 13.3703 217.233 13.7451 220.083C13.796 220.469 14.118 220.76 14.5119 220.775L15.5516 220.816C15.9684 220.832 16.3572 221.026 16.6187 221.35L17.9684 223.018C18.1217 223.208 18.3508 223.317 18.5951 223.317L25.8371 223.317C26.0617 223.317 26.2774 223.223 26.4289 223.059L29.0715 220.211L29.0715 198.486ZM27.5914 37.822L26.4766 36.6291C26.4219 36.5702 26.3913 36.4937 26.3913 36.4134L26.3913 28.344L25.7054 27.7102C25.377 27.4066 24.9329 27.251 24.483 27.2756L19.3906 27.585L19.3906 28.3895C19.3906 28.5439 19.2786 28.6761 19.1252 28.7014L18.3871 28.8235L18.3871 31.0962C18.3871 31.4359 18.1682 31.7306 17.8418 31.8306L14.4457 32.8648C14.3707 32.8876 14.2937 32.899 14.2173 32.899C14.055 32.899 13.896 32.8471 13.7604 32.7478C13.5606 32.6017 13.4474 32.3765 13.4474 32.1304L13.4474 28.7507C13.3914 28.7457 13.3354 28.7387 13.2787 28.7507C13.1216 28.783 12.9905 28.8766 12.909 29.0145C12.8798 29.0638 12.8378 29.1043 12.7881 29.1315C12.769 29.1423 10.5496 30.5219 10.5496 37.7019L10.5496 47.7378L15.2863 47.7378C19.8379 47.7378 24.1127 49.6399 27.1422 52.9848L27.5914 37.822ZM14.0837 32.1304C14.0837 32.1899 14.1174 32.224 14.139 32.2392C14.1594 32.2544 14.2008 32.2778 14.2593 32.2601L17.6547 31.2259C17.7126 31.2082 17.7508 31.1563 17.7508 31.0962L17.7508 28.9291L15.5186 29.2991L14.6977 29.4358C14.6583 29.4415 14.6182 29.4396 14.5794 29.4313C14.5654 29.4288 14.552 29.4212 14.5386 29.4162C14.5183 29.4086 14.4979 29.4048 14.4801 29.394L14.0837 29.1537L14.0837 32.1304ZM27.0276 36.2894L28.0337 37.366C28.0356 37.3654 28.0387 37.3654 28.0407 37.3654C28.0585 37.3641 28.0788 37.3635 28.0986 37.3622C28.1189 37.3616 28.1399 37.3603 28.1622 37.3603C28.1857 37.3597 28.2106 37.3597 28.236 37.3597C28.2608 37.3603 28.2863 37.3609 28.313 37.3622C28.341 37.3628 28.369 37.3641 28.4002 37.366C28.4314 37.3685 28.4651 37.3717 28.4994 37.3748C28.53 37.3774 28.5593 37.3799 28.5917 37.3837C28.6579 37.3913 28.7272 37.4014 28.803 37.4141C28.8291 37.4185 28.8577 37.4248 28.8857 37.4299C28.941 37.44 28.997 37.4507 29.0569 37.464C29.0925 37.4716 29.1294 37.4811 29.1663 37.49C29.2248 37.5039 29.284 37.5191 29.347 37.5361C29.3858 37.5463 29.4259 37.5576 29.4673 37.5697C29.5354 37.5893 29.6054 37.6114 29.6779 37.6348C29.7186 37.6475 29.7574 37.6601 29.7988 37.674C29.8923 37.7063 29.991 37.7417 30.0921 37.7797C30.1157 37.7892 30.1373 37.7961 30.1609 37.805C30.2875 37.8543 30.4205 37.9093 30.5586 37.9694C30.5942 37.9846 30.6324 38.0023 30.6686 38.0188C30.7743 38.0656 30.8818 38.1149 30.9944 38.1687C31.0447 38.1927 31.0963 38.2193 31.1484 38.2446C31.2521 38.2958 31.3591 38.3502 31.4685 38.4078C31.5258 38.4375 31.583 38.4679 31.6409 38.4995C31.758 38.5628 31.8783 38.6304 32.0011 38.7C32.0552 38.7304 32.1074 38.7595 32.1621 38.7917C32.3415 38.8961 32.5248 39.0062 32.717 39.1264C33.0148 39.313 33.3081 39.6666 33.6014 40.1966C33.5887 40.0176 33.5747 39.8297 33.5588 39.6356C33.555 39.5868 33.5512 39.5362 33.5474 39.4875C33.5359 39.3383 33.5232 39.1871 33.5111 39.0315C33.5054 38.9651 33.4996 38.8961 33.4952 38.8291C33.4831 38.6886 33.4716 38.5476 33.4595 38.4034C33.4538 38.3338 33.4481 38.2636 33.4424 38.1946C33.4296 38.0396 33.4163 37.884 33.4029 37.7265C33.3972 37.6595 33.3914 37.5912 33.3864 37.5241C33.3743 37.3869 33.3628 37.2496 33.3507 37.113C33.3412 37.0023 33.3323 36.8928 33.3221 36.7828C33.3132 36.6828 33.3055 36.5829 33.2966 36.4842C33.2858 36.3647 33.2756 36.2451 33.2655 36.1268C33.2559 36.013 33.2457 35.9004 33.2356 35.7884C33.2279 35.6999 33.2203 35.6119 33.212 35.5246C33.1999 35.3792 33.1866 35.2368 33.1745 35.0952C33.1687 35.0325 33.163 34.9693 33.1573 34.9073C33.1439 34.7536 33.1306 34.6043 33.1178 34.4569C33.1127 34.4057 33.1077 34.3525 33.1032 34.3019C33.0956 34.2134 33.0879 34.1305 33.0803 34.0451C33.0656 33.88 33.051 33.7219 33.0377 33.5714C32.9689 32.8161 32.9168 32.2512 32.8945 32.014C31.1936 30.6711 28.1641 29.2207 27.0276 28.697L27.0276 36.2894ZM61.5218 166.262C61.4009 173.729 59.3914 178.041 59.3061 178.222L45.0551 207.429C45.0895 208.229 45.3644 214.766 45.2505 217.871C45.1194 221.454 41.7488 221.495 41.7145 221.495L38.7499 221.292C38.748 221.292 38.7467 221.293 38.7454 221.293C38.7378 221.293 38.7301 221.293 38.7231 221.293L31.8369 220.821C31.8337 220.821 31.8305 220.818 31.8274 220.818L29.5201 220.66L26.8965 223.488C26.6255 223.782 26.2386 223.949 25.8371 223.949L18.5951 223.949C18.1567 223.949 17.7469 223.755 17.4727 223.415L16.1231 221.746C15.9767 221.566 15.7597 221.457 15.5275 221.448L14.4864 221.408C13.7827 221.38 13.2062 220.858 13.1146 220.166C12.7372 217.304 11.8565 210.332 11.8165 207.386C11.7675 203.726 11.8642 197.007 11.8648 196.939C11.8674 196.767 12.0093 196.627 12.183 196.627L15.2863 196.627C20.4227 196.627 25.1925 194.086 28.0457 189.829C29.7199 187.331 30.6063 184.419 30.6095 181.41C30.6133 177.374 28.9614 173.55 25.9567 170.644C22.9692 167.754 19.0654 166.163 14.9631 166.163L10.2314 166.163C10.0558 166.163 9.91323 166.021 9.91323 165.846L9.91324 79.1512C9.91324 78.9766 10.0558 78.835 10.2314 78.835L14.9631 78.835C23.3389 78.835 30.3543 72.2141 30.6025 64.0758C30.7132 60.4184 29.5016 56.8446 27.1899 54.0127C27.1893 54.012 27.188 54.012 27.188 54.0114C24.2609 50.4268 19.9225 48.3704 15.2863 48.3704L10.2314 48.3704C10.0558 48.3704 9.91324 48.2287 9.91324 48.0541L9.91325 37.7019C9.91325 30.7331 11.9647 28.9316 12.4032 28.6268C12.5769 28.3731 12.8448 28.1941 13.1496 28.1315C13.4811 28.0619 13.8253 28.1378 14.0983 28.3358L14.7244 28.7893L18.0167 28.2434C18.0167 28.2434 18.0174 28.2441 18.018 28.2434L18.7542 28.1213L18.7542 27.2877C18.7542 27.1207 18.8853 26.9821 19.0527 26.972L24.4442 26.6444C25.0678 26.6089 25.6831 26.8265 26.1387 27.2472L26.887 27.9385C27.3515 28.1435 31.3228 29.9235 33.387 31.5959C35.1967 32.8174 36.4 33.6631 40.8198 57.6378C42.5264 68.2462 43.1456 73.6772 43.1513 73.731L45.2543 86.1168C45.8435 87.1877 56.0157 105.729 58.8766 114.314C61.7846 123.04 61.6013 135.813 61.5949 136.212C61.8577 143.761 61.6057 161.12 61.5218 166.262ZM59.5409 136.454L42.1516 133.646L35.3004 132.615C34.6214 132.513 33.9272 132.461 33.2368 132.461L18.7428 132.461C17.1743 132.461 15.5975 132.604 14.0569 132.887L12.7805 133.121L12.7805 160.262C12.7805 162.217 14.3808 163.808 16.3483 163.808C16.3776 163.808 16.4056 163.812 16.4329 163.82C23.0513 164.241 28.8233 168.252 31.5054 174.299C31.7739 174.942 31.9508 175.566 32.0361 175.896L34.9574 175.965C35.7687 175.982 36.5628 175.862 37.3277 175.603L58.8689 168.296C59.0223 166.483 60.1021 152.87 59.5409 136.454ZM12.7805 132.478L13.9411 132.265C15.5198 131.975 17.1354 131.828 18.7428 131.828L33.2368 131.828C33.959 131.828 34.6857 131.883 35.3965 131.99L42.2496 133.021L59.5186 135.809C58.888 118.233 57.8349 115.555 50.1915 100.786C42.7975 86.4982 39.5847 86.5134 36.1912 86.5393L35.7961 86.5412L16.3483 86.5412C14.3808 86.5412 12.7805 88.1321 12.7805 90.0886L12.7805 132.478ZM60.1696 136.204C60.79 153.904 59.4983 168.413 59.4849 168.558C59.4741 168.682 59.3901 168.788 59.2711 168.829L37.5332 176.202C36.7531 176.466 35.9424 176.6 35.121 176.6C35.0611 176.6 35.0026 176.6 34.9428 176.598L31.7765 176.524C31.6301 176.52 31.5048 176.418 31.4736 176.275C31.4717 176.266 31.2801 175.409 30.9206 174.549C28.3302 168.708 22.7427 164.835 16.3401 164.448C16.3222 164.447 16.3057 164.444 16.2885 164.44C13.9978 164.409 12.1442 162.546 12.1442 160.262L12.1442 90.0886C12.1442 87.7836 14.0302 85.9087 16.3483 85.9087L36.1874 85.9058C40.4272 85.8847 43.7119 86.8828 50.7572 100.496C58.5202 115.497 59.5358 118.108 60.1696 136.204Z" fill="#B2D182"/>
</svg>
