<svg width="20" height="20" viewBox="0 0 20 20" fill="none" xmlns="http://www.w3.org/2000/svg">
<path d="M10.0003 1.66602C5.41699 1.66602 1.66699 5.41602 1.66699 9.99935C1.66699 14.5827 5.41699 18.3327 10.0003 18.3327C14.5837 18.3327 18.3337 14.5827 18.3337 9.99935C18.3337 5.41602 14.5837 1.66602 10.0003 1.66602ZM13.5003 8.58268L9.50033 12.5827C9.16699 12.916 8.66699 12.916 8.33366 12.5827L6.50033 10.7493C6.16699 10.416 6.16699 9.91602 6.50033 9.58268C6.83366 9.24935 7.33366 9.24935 7.66699 9.58268L8.91699 10.8327L12.3337 7.41602C12.667 7.08268 13.167 7.08268 13.5003 7.41602C13.8337 7.74935 13.8337 8.24935 13.5003 8.58268Z" fill="#B2D182"/>
</svg>
