<svg width="11" height="7" viewBox="0 0 11 7" fill="none" xmlns="http://www.w3.org/2000/svg">
<path fill-rule="evenodd" clip-rule="evenodd" d="M1.67906 0.440552C1.6026 0.360568 1.51072 0.296908 1.40897 0.253416C1.30722 0.209923 1.19772 0.1875 1.08706 0.1875C0.976408 0.1875 0.866901 0.209923 0.765153 0.253416C0.663405 0.296908 0.571526 0.360568 0.495061 0.440552C0.338086 0.604843 0.250488 0.823324 0.250488 1.05055C0.250488 1.27778 0.338086 1.49626 0.495061 1.66055L4.63706 5.93455C4.71603 6.01703 4.81133 6.08214 4.91688 6.1257C5.02243 6.16926 5.13591 6.19033 5.25006 6.18755C5.36405 6.19019 5.47733 6.16905 5.5827 6.12549C5.68807 6.08194 5.78321 6.01691 5.86206 5.93455L10.0051 1.66155C10.1623 1.49721 10.2501 1.27852 10.2501 1.05105C10.2501 0.823585 10.1623 0.604892 10.0051 0.440552C9.9286 0.360568 9.83672 0.296908 9.73497 0.253416C9.63322 0.209923 9.52372 0.1875 9.41306 0.1875C9.30241 0.1875 9.1929 0.209923 9.09115 0.253416C8.9894 0.296908 8.89753 0.360568 8.82106 0.440552L5.25006 4.12455L1.67906 0.440552Z" fill="black" fill-opacity="0.4"/>
</svg>
