<svg width="15" height="16" viewBox="0 0 15 16" fill="none" xmlns="http://www.w3.org/2000/svg">
<path d="M13.7002 7.75C12.4377 4.81875 10.0627 3 7.50022 3C4.93772 3 2.56272 4.81875 1.30022 7.75C1.26581 7.82885 1.24805 7.91396 1.24805 8C1.24805 8.08604 1.26581 8.17115 1.30022 8.25C2.56272 11.1812 4.93772 13 7.50022 13C10.0627 13 12.4377 11.1812 13.7002 8.25C13.7346 8.17115 13.7524 8.08604 13.7524 8C13.7524 7.91396 13.7346 7.82885 13.7002 7.75V7.75ZM7.50022 11.75C5.51897 11.75 3.64397 10.3188 2.56272 8C3.64397 5.68125 5.51897 4.25 7.50022 4.25C9.48147 4.25 11.3565 5.68125 12.4377 8C11.3565 10.3188 9.48147 11.75 7.50022 11.75ZM7.50022 5.5C7.00577 5.5 6.52242 5.64662 6.1113 5.92133C5.70018 6.19603 5.37974 6.58648 5.19053 7.04329C5.00131 7.50011 4.9518 8.00277 5.04826 8.48773C5.14472 8.97268 5.38283 9.41814 5.73246 9.76777C6.08209 10.1174 6.52755 10.3555 7.0125 10.452C7.49745 10.5484 8.00012 10.4989 8.45693 10.3097C8.91375 10.1205 9.3042 9.80005 9.5789 9.38893C9.8536 8.9778 10.0002 8.49445 10.0002 8C10.0002 7.33696 9.73683 6.70107 9.26799 6.23223C8.79915 5.76339 8.16327 5.5 7.50022 5.5V5.5ZM7.50022 9.25C7.253 9.25 7.01132 9.17669 6.80576 9.03934C6.6002 8.90199 6.43998 8.70676 6.34538 8.47835C6.25077 8.24995 6.22601 7.99861 6.27424 7.75614C6.32247 7.51366 6.44153 7.29093 6.61634 7.11612C6.79116 6.9413 7.01389 6.82225 7.25636 6.77402C7.49884 6.72579 7.75017 6.75054 7.97858 6.84515C8.20699 6.93976 8.40221 7.09998 8.53956 7.30554C8.67691 7.5111 8.75022 7.75277 8.75022 8C8.75022 8.33152 8.61853 8.64946 8.38411 8.88388C8.14969 9.1183 7.83175 9.25 7.50022 9.25Z" fill="#838799"/>
</svg>
