<svg width="27" height="27" viewBox="0 0 27 27" fill="none" xmlns="http://www.w3.org/2000/svg">
<rect x="0.53125" y="0.859375" width="26" height="26" rx="3" fill="#1B1C21" fill-opacity="0.3"/>
<path d="M13.5316 8.44267L13.0812 8.87609C13.1991 8.9985 13.3617 9.06767 13.5316 9.06767C13.7015 9.06767 13.8641 8.9985 13.9819 8.87609L13.5316 8.44267ZM9.36542 17.5429C9.09889 17.3236 8.70502 17.3618 8.48567 17.6283C8.26632 17.8948 8.30456 18.2887 8.57108 18.5081L9.36542 17.5429ZM5.48323 15.0351C5.64886 15.3379 6.02863 15.4491 6.33148 15.2835C6.63433 15.1178 6.74555 14.7381 6.57992 14.4352L5.48323 15.0351ZM5.82324 11.4731C5.82324 9.68067 6.83605 8.17758 8.21854 7.54564C9.56163 6.93171 11.3663 7.0943 13.0812 8.87609L13.9819 8.00925C11.947 5.89508 9.58498 5.54664 7.69888 6.40878C5.85217 7.25291 4.57324 9.213 4.57324 11.4731H5.82324ZM10.6128 20.1087C11.0396 20.4452 11.4979 20.8041 11.9622 21.0754C12.4265 21.3466 12.9562 21.5671 13.5316 21.5671V20.3171C13.2736 20.3171 12.97 20.2166 12.5929 19.9961C12.216 19.7759 11.825 19.4726 11.3866 19.1271L10.6128 20.1087ZM16.4504 20.1087C17.6392 19.1715 19.1589 18.0976 20.351 16.7553C21.5645 15.3889 22.4899 13.6943 22.4899 11.4731H21.2399C21.2399 13.3042 20.4906 14.7156 19.4163 15.9253C18.3207 17.1591 16.9396 18.1314 15.6766 19.1271L16.4504 20.1087ZM22.4899 11.4731C22.4899 9.213 21.211 7.25291 19.3642 6.40878C17.4782 5.54664 15.1162 5.89508 13.0812 8.00925L13.9819 8.87609C15.6968 7.0943 17.5015 6.93171 18.8446 7.54564C20.2271 8.17758 21.2399 9.68067 21.2399 11.4731H22.4899ZM15.6766 19.1271C15.2382 19.4726 14.8472 19.7759 14.4702 19.9961C14.0932 20.2166 13.7896 20.3171 13.5316 20.3171V21.5671C14.1069 21.5671 14.6367 21.3466 15.1009 21.0754C15.5653 20.8041 16.0235 20.4452 16.4504 20.1087L15.6766 19.1271ZM11.3866 19.1271C10.7234 18.6042 10.0493 18.1057 9.36542 17.5429L8.57108 18.5081C9.26298 19.0775 9.99384 19.6208 10.6128 20.1087L11.3866 19.1271ZM6.57992 14.4352C6.11224 13.5801 5.82324 12.6116 5.82324 11.4731H4.57324C4.57324 12.8376 4.9232 14.0111 5.48323 15.0351L6.57992 14.4352Z" fill="#F2F2F2"/>
</svg>
