<svg width="21" height="21" viewBox="0 0 21 21" fill="none" xmlns="http://www.w3.org/2000/svg">
<path fill-rule="evenodd" clip-rule="evenodd" d="M18.8732 9.59611L17.8211 8.57092C17.2417 8.00624 16.9149 7.23145 16.9149 6.42235V4.88777C16.9149 4.66676 16.8271 4.4548 16.6708 4.29852C16.5145 4.14224 16.3025 4.05444 16.0815 4.05444H14.5696C13.7717 4.05444 13.0067 3.73661 12.4437 3.17123L11.3732 2.09611C11.2957 2.018 11.2036 1.95601 11.102 1.9137C11.0005 1.87139 10.8915 1.84961 10.7815 1.84961C10.6715 1.84961 10.5626 1.87139 10.461 1.9137C10.3595 1.95601 10.2673 2.018 10.1899 2.09611L9.16467 3.14815C8.6 3.72762 7.8252 4.05444 7.0161 4.05444H5.48152C5.26051 4.05444 5.04855 4.14224 4.89227 4.29852C4.73599 4.4548 4.64819 4.66676 4.64819 4.88777V6.42235C4.64819 7.23145 4.32138 8.00624 3.74191 8.57092L2.68986 9.59611C2.61175 9.67357 2.54976 9.76574 2.50745 9.86729C2.46514 9.96884 2.44336 10.0778 2.44336 10.1878C2.44336 10.2978 2.46514 10.4067 2.50745 10.5083C2.54976 10.6098 2.61175 10.702 2.68986 10.7794L3.76498 11.85C4.33036 12.413 4.64819 13.178 4.64819 13.9758V15.4878C4.64819 15.7088 4.73599 15.9207 4.89227 16.077C5.04855 16.2333 5.26051 16.3211 5.48152 16.3211H7.03514C7.833 16.3211 8.598 16.6389 9.16097 17.2043L10.2315 18.2794C10.309 18.3575 10.4012 18.4195 10.5027 18.4618C10.6043 18.5042 10.7132 18.5259 10.8232 18.5259C10.9332 18.5259 11.0421 18.5042 11.1437 18.4618C11.2452 18.4195 11.3374 18.3575 11.4149 18.2794L12.4854 17.2043C13.0484 16.6389 13.8134 16.3211 14.6112 16.3211H16.1232C16.3442 16.3211 16.5562 16.2333 16.7124 16.077C16.8687 15.9207 16.9565 15.7088 16.9565 15.4878V13.9758C16.9565 13.178 17.2744 12.413 17.8397 11.85L18.9149 10.7794C18.9903 10.6993 19.0491 10.6049 19.0879 10.5019C19.1266 10.3988 19.1446 10.2891 19.1407 10.1791C19.1369 10.0691 19.1112 9.96088 19.0653 9.86082C19.0194 9.76076 18.9541 9.67079 18.8732 9.59611Z" fill="#0066FF"/>
<path d="M12.9058 7.89518L9.86498 10.9663L8.69544 9.78782C8.63189 9.71306 8.5537 9.65234 8.46576 9.60947C8.37782 9.5666 8.28204 9.54251 8.18442 9.53871C8.0868 9.53491 7.98946 9.55149 7.8985 9.58739C7.80754 9.6233 7.72493 9.67776 7.65585 9.74736C7.58677 9.81697 7.53272 9.9002 7.49708 9.99186C7.46145 10.0835 7.445 10.1816 7.44877 10.2799C7.45254 10.3783 7.47645 10.4748 7.51899 10.5634C7.56154 10.652 7.6218 10.7308 7.696 10.7949L9.36172 12.4804C9.42796 12.5466 9.5065 12.5989 9.59287 12.6345C9.67923 12.67 9.7717 12.688 9.86498 12.6875C10.0509 12.6867 10.2291 12.6123 10.3612 12.4804L13.9052 8.90935C13.9717 8.84296 14.0244 8.76397 14.0604 8.67694C14.0964 8.5899 14.1149 8.49655 14.1149 8.40227C14.1149 8.30799 14.0964 8.21464 14.0604 8.1276C14.0244 8.04057 13.9717 7.96158 13.9052 7.89518C13.7724 7.76216 13.5928 7.6875 13.4055 7.6875C13.2183 7.6875 13.0386 7.76216 12.9058 7.89518Z" fill="#F2F2F2"/>
</svg>
