<svg width="35" height="35" viewBox="0 0 35 35" fill="none" xmlns="http://www.w3.org/2000/svg">
<path fill-rule="evenodd" clip-rule="evenodd" d="M31.6604 16.4646L29.1396 14.0081C28.5601 13.4435 28.2333 12.6687 28.2333 11.8596V8.22499C28.2333 7.83822 28.0797 7.46728 27.8062 7.19379C27.5327 6.9203 27.1618 6.76666 26.775 6.76666H23.1943C22.3964 6.76666 21.6314 6.44883 21.0685 5.88345L18.5354 3.33957C18.3998 3.20289 18.2385 3.0944 18.0608 3.02036C17.8831 2.94632 17.6925 2.9082 17.5 2.9082C17.3075 2.9082 17.1169 2.94632 16.9392 3.02036C16.7614 3.0944 16.6001 3.20289 16.4646 3.33957L14.0081 5.86037C13.4435 6.43984 12.6687 6.76666 11.8596 6.76666H8.22499C7.83822 6.76666 7.46729 6.9203 7.1938 7.19379C6.9203 7.46728 6.76666 7.83822 6.76666 8.22499V11.8596C6.76666 12.6687 6.43984 13.4435 5.86037 14.0081L3.33958 16.4646C3.20289 16.6001 3.0944 16.7614 3.02036 16.9391C2.94632 17.1169 2.9082 17.3075 2.9082 17.5C2.9082 17.6925 2.94632 17.8831 3.02036 18.0608C3.0944 18.2385 3.20289 18.3998 3.33958 18.5354L5.88345 21.0685C6.44883 21.6314 6.76666 22.3964 6.76666 23.1943V26.775C6.76666 27.1618 6.9203 27.5327 7.1938 27.8062C7.46729 28.0797 7.83822 28.2333 8.22499 28.2333H11.8786C12.6765 28.2333 13.4415 28.5512 14.0044 29.1165L16.5375 31.6604C16.6731 31.7971 16.8344 31.9056 17.0121 31.9796C17.1898 32.0537 17.3804 32.0918 17.5729 32.0918C17.7654 32.0918 17.956 32.0537 18.1338 31.9796C18.3115 31.9056 18.4728 31.7971 18.6083 31.6604L21.1414 29.1165C21.7043 28.5512 22.4693 28.2333 23.2672 28.2333H26.8479C27.2347 28.2333 27.6056 28.0797 27.8791 27.8062C28.1526 27.5327 28.3062 27.1618 28.3062 26.775V23.1943C28.3062 22.3964 28.6241 21.6314 29.1894 21.0685L31.7333 18.5354C31.8654 18.3951 31.9683 18.23 32.0361 18.0497C32.104 17.8693 32.1354 17.6773 32.1286 17.4848C32.1218 17.2922 32.077 17.1029 31.9966 16.9278C31.9162 16.7527 31.802 16.5953 31.6604 16.4646Z" fill="#0066FF"/>
<path d="M21.2177 13.4884L15.8963 18.8628L13.8496 16.8006C13.7384 16.6697 13.6015 16.5635 13.4476 16.4884C13.2938 16.4134 13.1261 16.3713 12.9553 16.3646C12.7845 16.358 12.6141 16.387 12.4549 16.4498C12.2958 16.5126 12.1512 16.608 12.0303 16.7298C11.9094 16.8516 11.8148 16.9972 11.7525 17.1576C11.6901 17.318 11.6613 17.4897 11.6679 17.6618C11.6745 17.8339 11.7164 18.0028 11.7908 18.1579C11.8653 18.3129 11.9707 18.4508 12.1006 18.5629L15.0156 21.5125C15.1315 21.6284 15.269 21.72 15.4201 21.7822C15.5712 21.8444 15.733 21.8759 15.8963 21.875C16.2217 21.8736 16.5335 21.7434 16.7646 21.5125L22.9667 15.2632C23.083 15.1471 23.1753 15.0088 23.2383 14.8565C23.3012 14.7042 23.3337 14.5408 23.3337 14.3758C23.3337 14.2109 23.3012 14.0475 23.2383 13.8952C23.1753 13.7429 23.083 13.6046 22.9667 13.4884C22.7343 13.2557 22.4199 13.125 22.0922 13.125C21.7645 13.125 21.4501 13.2557 21.2177 13.4884Z" fill="#F2F2F2"/>
</svg>
