<svg width="20" height="20" viewBox="0 0 20 20" fill="none" xmlns="http://www.w3.org/2000/svg">
<path d="M9.99967 1.66602C8.23156 1.66602 6.53587 2.36839 5.28563 3.61864C4.03539 4.86888 3.33301 6.56457 3.33301 8.33268C3.33301 12.8327 9.20801 17.916 9.45801 18.1327C9.60895 18.2618 9.80105 18.3327 9.99967 18.3327C10.1983 18.3327 10.3904 18.2618 10.5413 18.1327C10.833 17.916 16.6663 12.8327 16.6663 8.33268C16.6663 6.56457 15.964 4.86888 14.7137 3.61864C13.4635 2.36839 11.7678 1.66602 9.99967 1.66602V1.66602ZM9.99967 16.3743C8.22467 14.7077 4.99967 11.116 4.99967 8.33268C4.99967 7.0066 5.52646 5.73483 6.46414 4.79715C7.40182 3.85947 8.67359 3.33268 9.99967 3.33268C11.3258 3.33268 12.5975 3.85947 13.5352 4.79715C14.4729 5.73483 14.9997 7.0066 14.9997 8.33268C14.9997 11.116 11.7747 14.716 9.99967 16.3743ZM9.99967 4.99935C9.3404 4.99935 8.69594 5.19485 8.14777 5.56112C7.59961 5.92739 7.17237 6.44798 6.92008 7.05707C6.66778 7.66616 6.60177 8.33638 6.73039 8.98298C6.85901 9.62959 7.17648 10.2235 7.64265 10.6897C8.10883 11.1559 8.70277 11.4733 9.34937 11.602C9.99598 11.7306 10.6662 11.6646 11.2753 11.4123C11.8844 11.16 12.405 10.7327 12.7712 10.1846C13.1375 9.63642 13.333 8.99195 13.333 8.33268C13.333 7.44863 12.9818 6.60078 12.3567 5.97566C11.7316 5.35054 10.8837 4.99935 9.99967 4.99935ZM9.99967 9.99935C9.67004 9.99935 9.34781 9.9016 9.07372 9.71847C8.79964 9.53533 8.58602 9.27503 8.45987 8.97049C8.33373 8.66594 8.30072 8.33083 8.36503 8.00753C8.42934 7.68423 8.58808 7.38726 8.82116 7.15417C9.05425 6.92108 9.35122 6.76235 9.67452 6.69804C9.99783 6.63373 10.3329 6.66674 10.6375 6.79288C10.942 6.91903 11.2023 7.13265 11.3855 7.40673C11.5686 7.68081 11.6663 8.00305 11.6663 8.33268C11.6663 8.77471 11.4907 9.19863 11.1782 9.51119C10.8656 9.82375 10.4417 9.99935 9.99967 9.99935Z" fill="#838799"/>
</svg>
