<svg width="20" height="20" viewBox="0 0 20 20" fill="none" xmlns="http://www.w3.org/2000/svg">
<path d="M16.1998 10.8328C16.0165 10.8328 15.8248 10.7745 15.6415 10.7328C15.2702 10.651 14.9054 10.5424 14.5498 10.4078C14.1632 10.2672 13.7383 10.2745 13.3568 10.4283C12.9752 10.5822 12.6641 10.8717 12.4832 11.2412L12.2998 11.6162C11.4882 11.1646 10.7423 10.6038 10.0832 9.94948C9.42881 9.29033 8.86803 8.54448 8.41651 7.73282L8.76651 7.49948C9.13598 7.31858 9.42549 7.00742 9.57933 6.62589C9.73318 6.24436 9.74048 5.81941 9.59984 5.43282C9.46753 5.0765 9.35895 4.71181 9.27484 4.34115C9.23317 4.15782 9.19984 3.96615 9.17484 3.77448C9.07364 3.1875 8.76619 2.65593 8.30786 2.27552C7.84952 1.8951 7.27042 1.69082 6.67484 1.69948H4.17484C3.8157 1.69611 3.46005 1.77016 3.1321 1.91659C2.80415 2.06302 2.5116 2.2784 2.27437 2.54805C2.03713 2.81771 1.86079 3.13531 1.75733 3.47924C1.65387 3.82318 1.62574 4.18537 1.67484 4.54115C2.11879 8.0323 3.7132 11.276 6.20622 13.76C8.69924 16.244 11.9488 17.8266 15.4415 18.2578H15.7582C16.3727 18.2587 16.966 18.0333 17.4248 17.6245C17.6885 17.3887 17.8991 17.0996 18.0427 16.7764C18.1864 16.4532 18.2598 16.1032 18.2582 15.7495V13.2495C18.248 12.6706 18.0372 12.1133 17.6618 11.6725C17.2864 11.2318 16.7697 10.935 16.1998 10.8328V10.8328ZM16.6165 15.8328C16.6164 15.9511 16.591 16.0681 16.5422 16.1758C16.4933 16.2836 16.4221 16.3797 16.3332 16.4578C16.2403 16.5387 16.1315 16.599 16.0137 16.6349C15.896 16.6708 15.772 16.6814 15.6498 16.6662C12.5289 16.266 9.63004 14.8382 7.41044 12.6081C5.19084 10.3779 3.77685 7.47226 3.39151 4.34948C3.37824 4.22741 3.38987 4.10393 3.42567 3.98648C3.46148 3.86903 3.52073 3.76006 3.59984 3.66615C3.67793 3.57726 3.77406 3.50602 3.88182 3.45716C3.98959 3.40831 4.10652 3.38297 4.22484 3.38282H6.72484C6.91863 3.3785 7.10786 3.44188 7.25996 3.56204C7.41206 3.6822 7.51751 3.85162 7.55817 4.04115C7.59151 4.26893 7.63317 4.49393 7.68317 4.71615C7.77944 5.15544 7.90756 5.58713 8.06651 6.00782L6.89984 6.54948C6.80009 6.59525 6.71036 6.66027 6.6358 6.74081C6.56125 6.82135 6.50334 6.91583 6.4654 7.01881C6.42746 7.1218 6.41023 7.23126 6.41471 7.34092C6.41919 7.45058 6.44529 7.55827 6.49151 7.65782C7.69084 10.2268 9.75588 12.2918 12.3248 13.4912C12.5277 13.5745 12.7553 13.5745 12.9582 13.4912C13.0621 13.454 13.1576 13.3965 13.2391 13.3221C13.3207 13.2478 13.3866 13.1579 13.4332 13.0578L13.9498 11.8912C14.3806 12.0452 14.8203 12.1732 15.2665 12.2745C15.4887 12.3245 15.7137 12.3662 15.9415 12.3995C16.131 12.4401 16.3005 12.5456 16.4206 12.6977C16.5408 12.8498 16.6042 13.039 16.5998 13.2328L16.6165 15.8328Z" fill="#838799"/>
</svg>
