<svg width="20" height="20" viewBox="0 0 20 20" fill="none" xmlns="http://www.w3.org/2000/svg">
<path d="M9.19832 3.59681L9.73916 4.56592C10.2272 5.44048 10.0313 6.58777 9.26259 7.3565C9.26258 7.3565 9.26258 7.3565 9.26258 7.3565C9.26247 7.35662 8.33024 8.28906 10.0208 9.97957C11.7106 11.6694 12.643 10.7386 12.6438 10.7377C12.6438 10.7377 12.6438 10.7377 12.6439 10.7377C13.4126 9.96901 14.5599 9.77309 15.4344 10.2612L16.4035 10.802C17.7241 11.539 17.8801 13.391 16.7193 14.5518C16.0218 15.2493 15.1673 15.7921 14.2228 15.8279C12.6326 15.8882 9.93222 15.4857 7.22341 12.7769C4.5146 10.0681 4.11217 7.36769 4.17245 5.77757C4.20826 4.833 4.75099 3.97853 5.4485 3.28103C6.60929 2.12024 8.4613 2.2762 9.19832 3.59681Z" stroke="#F5F6FF" stroke-width="1.5" stroke-linecap="round"/>
</svg>
