<svg width="17" height="17" viewBox="0 0 17 17" fill="none" xmlns="http://www.w3.org/2000/svg">
<path fill-rule="evenodd" clip-rule="evenodd" d="M8.78174 16.1875C13.2 16.1875 16.7817 12.6058 16.7817 8.1875C16.7817 3.76922 13.2 0.1875 8.78174 0.1875C4.36346 0.1875 0.781738 3.76922 0.781738 8.1875C0.781738 12.6058 4.36346 16.1875 8.78174 16.1875ZM8.78174 5.1875C8.49768 5.1875 8.30768 5.52834 7.92769 6.21001L7.82938 6.38637C7.7214 6.58008 7.6674 6.67694 7.58322 6.74084C7.49904 6.80475 7.39419 6.82847 7.1845 6.87591L6.9936 6.91911C6.2557 7.08607 5.88674 7.16955 5.79896 7.45182C5.71119 7.73409 5.96271 8.02822 6.46577 8.61648L6.59591 8.76867C6.73887 8.93583 6.81034 9.01941 6.8425 9.12281C6.87465 9.22622 6.86385 9.33773 6.84223 9.56077L6.82256 9.76382C6.7465 10.5487 6.70847 10.9411 6.93828 11.1156C7.16809 11.29 7.51354 11.131 8.20444 10.8129L8.38318 10.7306C8.57952 10.6402 8.67768 10.595 8.78174 10.595C8.88579 10.595 8.98396 10.6402 9.18029 10.7306L9.35904 10.8129C10.0499 11.131 10.3954 11.29 10.6252 11.1156C10.855 10.9411 10.817 10.5487 10.7409 9.76382L10.7212 9.56077C10.6996 9.33774 10.6888 9.22621 10.721 9.12281C10.7531 9.01941 10.8246 8.93583 10.9676 8.76867L11.0977 8.61648C11.6008 8.02822 11.8523 7.73409 11.7645 7.45182C11.6767 7.16955 11.3078 7.08607 10.5699 6.91911L10.379 6.87591C10.1693 6.82847 10.0644 6.80475 9.98026 6.74084C9.89607 6.67694 9.84208 6.58008 9.7341 6.38637L9.63579 6.21001C9.25579 5.52834 9.0658 5.1875 8.78174 5.1875Z" fill="#FFDE5C"/>
</svg>
