<svg width="30" height="30" viewBox="0 0 30 30" fill="none" xmlns="http://www.w3.org/2000/svg">
<path d="M9.50473 5.75473C11.6746 3.58491 12.7595 2.5 14.1076 2.5C15.4558 2.5 16.5407 3.58491 18.7105 5.75473L24.234 11.2782C26.4038 13.448 27.4887 14.5329 27.4887 15.8811C27.4887 17.2292 26.4038 18.3142 24.234 20.484C22.0642 22.6538 20.9792 23.7387 19.6311 23.7387C18.2829 23.7387 17.198 22.6538 15.0282 20.484L9.50473 14.9605C7.33491 12.7907 6.25 11.7058 6.25 10.3576C6.25 9.00947 7.33491 7.92456 9.50473 5.75473Z" fill="#F2F2F2"/>
<path d="M9.105 17.2125L3.53226 22.7853C3.10421 23.2133 2.89018 23.4274 2.76163 23.65C2.41279 24.2542 2.41279 24.9986 2.76163 25.6029C2.89018 25.8255 3.1042 26.0395 3.53223 26.4676C3.96029 26.8956 4.17435 27.1097 4.397 27.2382C5.00121 27.5871 5.74563 27.5871 6.34984 27.2382C6.57249 27.1097 6.78652 26.8956 7.21457 26.4676L12.7873 20.8949L9.105 17.2125Z" fill="#F2F2F2"/>
<path d="M10.4308 15.8867L10.4363 15.8812L14.1186 19.5635L14.1131 19.569L10.4308 15.8867Z" fill="#F2F2F2"/>
<path d="M24.5857 8.97838C24.9041 8.38425 24.8941 7.66592 24.5556 7.07962C24.4271 6.85696 24.213 6.64294 23.785 6.21488C23.3569 5.78682 23.1429 5.5728 22.9202 5.44425C22.3339 5.10574 21.6156 5.09571 21.0215 5.41416L24.5857 8.97838Z" fill="#F2F2F2"/>
</svg>
