<svg width="21" height="21" viewBox="0 0 21 21" fill="none" xmlns="http://www.w3.org/2000/svg">
<path d="M7.11806 4.02334C8.56461 2.57679 9.28789 1.85352 10.1867 1.85352C11.0854 1.85352 11.8087 2.57679 13.2553 4.02334L16.9376 7.70565C18.3841 9.1522 19.1074 9.87547 19.1074 10.7742C19.1074 11.673 18.3841 12.3963 16.9376 13.8428C15.491 15.2894 14.7677 16.0127 13.869 16.0127C12.9702 16.0127 12.2469 15.2894 10.8004 13.8428L7.11806 10.1605C5.67152 8.71398 4.94824 7.9907 4.94824 7.09193C4.94824 6.19316 5.67152 5.46989 7.11806 4.02334Z" fill="#B2D182"/>
<path d="M6.85157 11.6625L3.13642 15.3777C2.85105 15.6631 2.70836 15.8057 2.62266 15.9542C2.3901 16.357 2.3901 16.8533 2.62266 17.2561C2.70836 17.4045 2.85104 17.5472 3.1364 17.8325C3.42177 18.1179 3.56447 18.2606 3.71291 18.3463C4.11571 18.5789 4.61199 18.5789 5.0148 18.3463C5.16324 18.2606 5.30592 18.1179 5.59129 17.8326L9.30644 14.1174L6.85157 11.6625Z" fill="#B2D182"/>
<path d="M7.73546 10.7786L7.73912 10.775L10.194 13.2299L10.1903 13.2335L7.73546 10.7786Z" fill="#B2D182"/>
<path d="M17.172 6.17309C17.3843 5.777 17.3777 5.29812 17.152 4.90724C17.0663 4.75881 16.9236 4.61612 16.6382 4.33075C16.3529 4.04538 16.2102 3.9027 16.0617 3.817C15.6709 3.59133 15.192 3.58464 14.7959 3.79694L17.172 6.17309Z" fill="#B2D182"/>
</svg>
