<svg width="10" height="7" viewBox="0 0 10 7" fill="none" xmlns="http://www.w3.org/2000/svg">
<path fill-rule="evenodd" clip-rule="evenodd" d="M8.57094 6.07898C8.6474 6.15896 8.73928 6.22262 8.84103 6.26612C8.94278 6.30961 9.05228 6.33203 9.16294 6.33203C9.27359 6.33203 9.3831 6.30961 9.48485 6.26612C9.58659 6.22262 9.67847 6.15896 9.75494 6.07898C9.91191 5.91469 9.99951 5.69621 9.99951 5.46898C9.99951 5.24175 9.91191 5.02327 9.75494 4.85898L5.61294 0.584979C5.53397 0.502498 5.43867 0.437396 5.33312 0.393833C5.22757 0.350269 5.11409 0.329203 4.99994 0.331979C4.88595 0.329343 4.77267 0.350477 4.6673 0.394036C4.56193 0.437595 4.46679 0.502624 4.38794 0.584979L0.244939 4.85798C0.0876697 5.02232 -0.000112534 5.24101 -0.000112534 5.46848C-0.000112534 5.69595 0.0876697 5.91464 0.244939 6.07898C0.321403 6.15896 0.413283 6.22262 0.515031 6.26612C0.616779 6.30961 0.726285 6.33203 0.836939 6.33203C0.947593 6.33203 1.0571 6.30961 1.15885 6.26612C1.26059 6.22262 1.35247 6.15896 1.42894 6.07898L4.99994 2.39498L8.57094 6.07898Z" fill="black" fill-opacity="0.4"/>
</svg>
