<svg width="20" height="20" viewBox="0 0 20 20" fill="none" xmlns="http://www.w3.org/2000/svg">
<path d="M9 15H11V15.9169V17.9381V19H9V17.9381V15.9169V15Z" fill="#90A3BF"/>
<path d="M15 9H15.9171H17.9381H19V11H17.9381H15.9169H15V9Z" fill="#90A3BF"/>
<path d="M1 9H2.06189H4.08308H5V11H4.08308H2.06189H1V9Z" fill="#90A3BF"/>
<path fill-rule="evenodd" clip-rule="evenodd" d="M10 0C4.48 0 0 4.48 0 10C0 15.52 4.48 20 10 20C15.52 20 20 15.52 20 10C20 4.48 15.53 0 10 0ZM6 10C6 7.79086 7.79086 6 10 6C12.2091 6 14 7.79086 14 10C14 12.2091 12.2091 14 10 14C7.79086 14 6 12.2091 6 10ZM2.06189 9C2.55399 5.05369 5.92038 2 10 2C14.0796 2 17.446 5.05369 17.9381 9H15.9171C15.4415 6.16345 12.9767 4 10 4C7.02869 4 4.5596 6.16345 4.08308 9H2.06189ZM11 17.9381C14.6187 17.4869 17.4869 14.6187 17.9381 11H15.9169C15.495 13.5113 13.5113 15.495 11 15.9169V17.9381ZM9 17.9381C5.38128 17.4869 2.51314 14.6187 2.06189 11H4.08308C4.50496 13.5113 6.48868 15.495 9 15.9169V17.9381Z" fill="#90A3BF"/>
</svg>
