<svg width="21" height="21" viewBox="0 0 21 21" fill="none" xmlns="http://www.w3.org/2000/svg">
<path fill-rule="evenodd" clip-rule="evenodd" d="M18.9801 9.45878L18.7891 11.4881C18.4744 14.832 18.317 16.5039 17.3315 17.512C16.346 18.5202 14.8689 18.5202 11.9148 18.5202H9.64831C6.69421 18.5202 5.21717 18.5202 4.23165 17.512C3.24614 16.5039 3.08879 14.832 2.77408 11.4881L2.58308 9.45878C2.43308 7.86493 2.35807 7.06801 2.63073 6.73858C2.77822 6.56037 2.97879 6.45118 3.19323 6.43235C3.58965 6.39753 4.08748 6.96427 5.08313 8.09774C5.59805 8.68393 5.85551 8.97702 6.14272 9.02241C6.30186 9.04756 6.46401 9.0217 6.61096 8.94775C6.87617 8.81428 7.05299 8.45195 7.40663 7.72728L9.27069 3.90756C9.93895 2.5382 10.2731 1.85352 10.7816 1.85352C11.2901 1.85352 11.6242 2.5382 12.2925 3.90756L14.1565 7.72728C14.5102 8.45195 14.687 8.81428 14.9522 8.94775C15.0991 9.0217 15.2613 9.04756 15.4204 9.02241C15.7076 8.97702 15.9651 8.68393 16.48 8.09774C17.4757 6.96427 17.9735 6.39753 18.3699 6.43235C18.5844 6.45118 18.7849 6.56037 18.9324 6.73858C19.2051 7.06801 19.1301 7.86493 18.9801 9.45878ZM11.5752 10.7694L11.4933 10.6224C11.1766 10.0543 11.0183 9.77031 10.7816 9.77031C10.5449 9.77031 10.3865 10.0543 10.0699 10.6224L9.98794 10.7694C9.89796 10.9308 9.85296 11.0115 9.78281 11.0648C9.71266 11.118 9.62529 11.1378 9.45055 11.1773L9.29146 11.2133C8.67654 11.3525 8.36908 11.422 8.29593 11.6572C8.22278 11.8925 8.43239 12.1376 8.8516 12.6278L8.96005 12.7546C9.07918 12.8939 9.13874 12.9636 9.16554 13.0497C9.19234 13.1359 9.18333 13.2288 9.16532 13.4147L9.14892 13.5839C9.08555 14.238 9.05386 14.565 9.24536 14.7104C9.43687 14.8557 9.72474 14.7232 10.3005 14.4581L10.4494 14.3895C10.6131 14.3142 10.6949 14.2765 10.7816 14.2765C10.8683 14.2765 10.9501 14.3142 11.1137 14.3895L11.2627 14.4581C11.8384 14.7232 12.1263 14.8557 12.3178 14.7104C12.5093 14.565 12.4776 14.238 12.4142 13.5839L12.3978 13.4147C12.3798 13.2288 12.3708 13.1359 12.3976 13.0497C12.4244 12.9636 12.484 12.8939 12.6031 12.7546L12.7116 12.6278C13.1308 12.1376 13.3404 11.8925 13.2672 11.6572C13.1941 11.422 12.8866 11.3525 12.2717 11.2133L12.1126 11.1773C11.9379 11.1378 11.8505 11.118 11.7803 11.0648C11.7102 11.0115 11.6652 10.9308 11.5752 10.7694Z" fill="#F97316"/>
</svg>
