<svg width="35" height="35" viewBox="0 0 35 35" fill="none" xmlns="http://www.w3.org/2000/svg">
<path fill-rule="evenodd" clip-rule="evenodd" d="M31.8477 16.2252L31.5134 19.7766C30.9627 25.6283 30.6873 28.5542 28.9627 30.3184C27.238 32.0827 24.6532 32.0827 19.4835 32.0827H15.5171C10.3474 32.0827 7.76261 32.0827 6.03796 30.3184C4.31331 28.5542 4.03794 25.6283 3.4872 19.7766L3.15296 16.2252C2.89045 13.436 2.7592 12.0414 3.23635 11.4649C3.49446 11.153 3.84545 10.9619 4.22072 10.929C4.91445 10.868 5.78565 11.8598 7.52805 13.8434C8.42915 14.8692 8.8797 15.3821 9.38233 15.4616C9.66082 15.5056 9.94458 15.4603 10.2017 15.3309C10.6659 15.0974 10.9753 14.4633 11.5942 13.1951L14.8563 6.5106C16.0257 4.11421 16.6105 2.91602 17.5003 2.91602C18.3902 2.91602 18.9749 4.11421 20.1444 6.5106L23.4065 13.1951C24.0253 14.4633 24.3348 15.0974 24.7989 15.3309C25.0561 15.4603 25.3398 15.5056 25.6183 15.4616C26.1209 15.3821 26.5715 14.8692 27.4726 13.8434C29.215 11.8598 30.0862 10.868 30.7799 10.929C31.1552 10.9619 31.5062 11.153 31.7643 11.4649C32.2414 12.0414 32.1102 13.436 31.8477 16.2252ZM18.8892 18.5188L18.7458 18.2616C18.1917 17.2675 17.9146 16.7704 17.5003 16.7704C17.0861 16.7704 16.809 17.2675 16.2548 18.2616L16.1115 18.5188C15.954 18.8013 15.8753 18.9425 15.7525 19.0357C15.6297 19.1289 15.4768 19.1635 15.171 19.2327L14.8926 19.2957C13.8165 19.5392 13.2785 19.6609 13.1504 20.0725C13.0224 20.4842 13.3892 20.9131 14.1229 21.771L14.3127 21.9929C14.5211 22.2367 14.6254 22.3586 14.6723 22.5094C14.7192 22.6602 14.7034 22.8228 14.6719 23.1481L14.6432 23.4442C14.5323 24.5888 14.4768 25.1611 14.812 25.4155C15.1471 25.6699 15.6509 25.438 16.6584 24.974L16.9191 24.854C17.2054 24.7222 17.3486 24.6563 17.5003 24.6563C17.6521 24.6563 17.7952 24.7222 18.0816 24.854L18.3422 24.974C19.3498 25.438 19.8536 25.6699 20.1887 25.4155C20.5238 25.1611 20.4684 24.5888 20.3575 23.4442L20.3288 23.1481C20.2973 22.8228 20.2815 22.6602 20.3284 22.5094C20.3753 22.3586 20.4795 22.2367 20.688 21.9929L20.8778 21.771C21.6114 20.9131 21.9782 20.4842 21.8502 20.0725C21.7222 19.6609 21.1841 19.5392 20.108 19.2957L19.8296 19.2327C19.5238 19.1635 19.3709 19.1289 19.2482 19.0357C19.1254 18.9425 19.0467 18.8013 18.8892 18.5188Z" fill="#F97316"/>
</svg>
