<svg width="20" height="20" viewBox="0 0 20 20" fill="none" xmlns="http://www.w3.org/2000/svg">
<path d="M9.16634 1.66602C7.51817 1.66602 5.907 2.15476 4.53659 3.07044C3.16618 3.98611 2.09808 5.2876 1.46735 6.81032C0.836619 8.33304 0.671591 10.0086 0.993134 11.6251C1.31468 13.2416 2.10835 14.7265 3.27379 15.8919C4.43923 17.0573 5.92408 17.851 7.54059 18.1726C9.1571 18.4941 10.8327 18.3291 12.3554 17.6983C13.8781 17.0676 15.1796 15.9995 16.0953 14.6291C17.0109 13.2587 17.4997 11.6475 17.4997 9.99935C17.4997 8.905 17.2841 7.82137 16.8653 6.81032C16.4466 5.79927 15.8327 4.88061 15.0589 4.10679C14.2851 3.33297 13.3664 2.71914 12.3554 2.30035C11.3443 1.88156 10.2607 1.66602 9.16634 1.66602V1.66602ZM9.16634 16.666C7.8478 16.666 6.55887 16.275 5.46254 15.5425C4.36622 14.8099 3.51173 13.7687 3.00715 12.5506C2.50256 11.3324 2.37054 9.99195 2.62778 8.69875C2.88501 7.40554 3.51995 6.21765 4.4523 5.2853C5.38465 4.35295 6.57254 3.71802 7.86574 3.46078C9.15895 3.20355 10.4994 3.33557 11.7176 3.84015C12.9357 4.34474 13.9769 5.19922 14.7095 6.29555C15.442 7.39188 15.833 8.68081 15.833 9.99935C15.833 11.7675 15.1306 13.4632 13.8804 14.7134C12.6301 15.9636 10.9345 16.666 9.16634 16.666V16.666ZM11.7497 10.5243L9.99968 9.51602V5.83268C9.99968 5.61167 9.91188 5.39971 9.7556 5.24343C9.59932 5.08715 9.38736 4.99935 9.16634 4.99935C8.94533 4.99935 8.73337 5.08715 8.57709 5.24343C8.42081 5.39971 8.33301 5.61167 8.33301 5.83268V9.99935C8.33301 9.99935 8.33301 10.066 8.33301 10.0993C8.33795 10.1568 8.35201 10.213 8.37468 10.266C8.39184 10.3155 8.41419 10.3629 8.44135 10.4077C8.46415 10.455 8.49209 10.4998 8.52468 10.541L8.65801 10.6493L8.73301 10.7243L10.8997 11.9743C11.0267 12.0463 11.1704 12.0837 11.3163 12.0827C11.5009 12.084 11.6806 12.024 11.8273 11.9121C11.9741 11.8003 12.0796 11.6429 12.1272 11.4646C12.1749 11.2864 12.162 11.0973 12.0907 10.9272C12.0194 10.757 11.8935 10.6153 11.733 10.5243H11.7497Z" fill="#838799"/>
</svg>
