<svg width="12" height="13" viewBox="0 0 12 13" fill="none" xmlns="http://www.w3.org/2000/svg">
<g clip-path="url(#clip0_1133_16840)">
<path fill-rule="evenodd" clip-rule="evenodd" d="M1.28019 0.927331C1.13874 0.790712 0.949286 0.715116 0.752638 0.716825C0.55599 0.718534 0.367881 0.797411 0.228825 0.936467C0.0897688 1.07552 0.0108921 1.26363 0.00918328 1.46028C0.00747447 1.65693 0.0830703 1.84638 0.219689 1.98783L4.93944 6.70758L0.219689 11.4273C0.148056 11.4965 0.0909195 11.5793 0.0516128 11.6708C0.012306 11.7623 -0.00838366 11.8607 -0.00924903 11.9603C-0.0101144 12.0599 0.00886189 12.1586 0.0465726 12.2508C0.0842832 12.343 0.139973 12.4267 0.210393 12.4971C0.280812 12.5675 0.364551 12.6232 0.456723 12.6609C0.548896 12.6987 0.647655 12.7176 0.74724 12.7168C0.846824 12.7159 0.945239 12.6952 1.03674 12.6559C1.12825 12.6166 1.211 12.5595 1.28019 12.4878L5.99994 7.76808L10.7197 12.4878C10.8611 12.6244 11.0506 12.7 11.2472 12.6983C11.4439 12.6966 11.632 12.6178 11.7711 12.4787C11.9101 12.3396 11.989 12.1515 11.9907 11.9549C11.9924 11.7582 11.9168 11.5688 11.7802 11.4273L7.06044 6.70758L11.7802 1.98783C11.9168 1.84638 11.9924 1.65693 11.9907 1.46028C11.989 1.26363 11.9101 1.07552 11.7711 0.936467C11.632 0.797411 11.4439 0.718534 11.2472 0.716825C11.0506 0.715116 10.8611 0.790712 10.7197 0.927331L5.99994 5.64708L1.28019 0.927331Z" fill="black" fill-opacity="0.4"/>
</g>
<defs>
<clipPath id="clip0_1133_16840">
<rect width="12" height="12" fill="white" transform="translate(0 0.707031)"/>
</clipPath>
</defs>
</svg>
